<?xml version="1.0" standalone="no"?>
<!DOCTYPE svg PUBLIC "-//W3C//DTD SVG 1.1//EN" "http://www.w3.org/Graphics/SVG/1.1/DTD/svg11.dtd" >
<svg xmlns="http://www.w3.org/2000/svg" xmlns:xlink="http://www.w3.org/1999/xlink" version="1.1">
<metadata>
Created by FontForge 20170924 at Wed Mar  9 14:12:28 2016
 By www-data
\(c\)2013-2015 Orkney is a trademark of Samuel Oakes and Alfredo Marco Pradil. All rights reserved.
</metadata>
<defs>
<font id="Orkney-Regular" horiz-adv-x="0" >
  <font-face 
    font-family="Orkney"
    font-weight="400"
    font-stretch="normal"
    units-per-em="1000"
    panose-1="0 0 5 0 0 0 0 0 0 0"
    ascent="750"
    descent="-250"
    x-height="500"
    cap-height="750"
    bbox="-749 -335 1167 1013"
    underline-thickness="37"
    underline-position="-64"
    stemh="82"
    stemv="91"
    unicode-range="U+0020-FB02"
  />
<missing-glyph horiz-adv-x="595" 
d="M90 0v750h415v-750h-415zM159 69h277v612h-277v-612z" />
    <glyph glyph-name="fi" unicode="fi" horiz-adv-x="597" 
d="M354 686c-84 0 -141 -50 -141 -134v-52h305v-500h-89v431h-216v-431h-89v431h-84v69h84v56c0 125 90 204 221 204c69 0 132 -22 174 -43v-81c-47 26 -106 50 -165 50z" />
    <glyph glyph-name="fl" unicode="fl" horiz-adv-x="688" 
d="M649 89l49 -60c-24 -25 -60 -39 -105 -39c-94 0 -153 61 -153 150v532c-28 9 -57 14 -88 14c-81 0 -139 -50 -139 -134v-52h131v-69h-131v-431h-89v431h-84v69h84v56c0 125 91 204 218 204c35 0 69 -4 98 -12v2h88v-40h1v-84h-1l1 -486c0 -49 24 -74 66 -74
c22 0 39 7 54 23z" />
    <glyph glyph-name=".notdef" horiz-adv-x="595" 
d="M90 0v750h415v-750h-415zM159 69h277v612h-277v-612z" />
    <glyph glyph-name="space" unicode=" " horiz-adv-x="260" 
 />
    <glyph glyph-name="exclam" unicode="!" horiz-adv-x="298" 
d="M114 219l-10 531h89l-10 -531h-69zM149 -10c-32 0 -59 27 -59 59s27 58 59 58s58 -26 58 -58s-26 -59 -58 -59z" />
    <glyph glyph-name="quotedbl" unicode="&#x22;" horiz-adv-x="436" 
d="M100 466l-10 284h84l-10 -284h-64zM271 466l-9 284h83l-9 -284h-65z" />
    <glyph glyph-name="numbersign" unicode="#" horiz-adv-x="776" 
d="M179 0l24 174h-141l9 66h141l34 229h-141l10 65h139l26 175h64l-24 -175h187l24 175h65l-24 -175h142l-11 -65h-140l-32 -229h140l-9 -66h-140l-26 -174h-65l25 174h-188l-24 -174h-65zM278 240h187l33 229h-188z" />
    <glyph glyph-name="dollar" unicode="$" horiz-adv-x="653" 
d="M572 204c0 -125 -102 -192 -206 -207v-83h-78v83c-99 12 -180 72 -215 145l66 38c28 -62 98 -111 188 -111s166 48 166 131c0 184 -388 116 -388 361c0 117 89 180 183 192v86h78v-87c65 -11 122 -45 159 -87l-53 -45c-31 37 -84 66 -144 66c-74 0 -144 -42 -144 -121
c0 -182 388 -118 388 -361z" />
    <glyph glyph-name="percent" unicode="%" horiz-adv-x="752" 
d="M195 441c-78 0 -139 72 -139 159c0 89 61 160 139 160c76 0 138 -71 138 -160c0 -87 -62 -159 -138 -159zM73 0l513 750h92l-512 -750h-93zM195 510c37 0 70 40 70 90c0 52 -33 91 -70 91c-38 0 -70 -39 -70 -91c0 -50 32 -90 70 -90zM558 -10c-77 0 -139 72 -139 160
c0 87 62 159 139 159s138 -72 138 -159c0 -88 -61 -160 -138 -160zM557 59c38 0 69 40 69 91c0 50 -31 90 -69 90c-37 0 -69 -40 -69 -90c0 -51 32 -91 69 -91z" />
    <glyph glyph-name="ampersand" unicode="&#x26;" horiz-adv-x="735" 
d="M695 52l-57 -57l-104 103l-43 -43c-89 -88 -235 -87 -323 0c-89 89 -88 234 0 322l44 43l-27 27c-35 35 -54 83 -54 130c0 101 83 181 183 181c101 0 184 -80 184 -181h-80c0 57 -47 103 -103 103c-58 0 -105 -47 -105 -105c0 -27 11 -52 31 -73l294 -291l103 102l56 -56
l-103 -102zM435 112l43 42l-211 210l-43 -43c-59 -59 -59 -151 0 -209s152 -59 211 0z" />
    <glyph glyph-name="quotesingle" unicode="'" horiz-adv-x="264" 
d="M100 466l-10 284h84l-10 -284h-64z" />
    <glyph glyph-name="parenleft" unicode="(" horiz-adv-x="404" 
d="M339 -321c-150 10 -269 214 -269 569c0 356 119 563 269 573v-64c-106 -12 -190 -198 -190 -509c0 -308 84 -493 190 -505v-64z" />
    <glyph glyph-name="parenright" unicode=")" horiz-adv-x="404" 
d="M65 -321v64c107 12 191 197 191 505c0 311 -84 497 -191 509v64c151 -10 269 -217 269 -573c0 -355 -118 -559 -269 -569z" />
    <glyph glyph-name="asterisk" unicode="*" horiz-adv-x="343" 
d="M132 510l-42 25l53 75l-93 -8v50l93 -9l-53 76l42 25l39 -83l40 83l43 -25l-54 -76l92 9v-50l-92 8l54 -75l-43 -25l-40 83z" />
    <glyph glyph-name="plus" unicode="+" horiz-adv-x="801" 
d="M366 0v275h-276v70h276v275h69v-275h275v-70h-275v-275h-69z" />
    <glyph glyph-name="comma" unicode="," horiz-adv-x="211" 
d="M47 -186v44c43 0 70 62 70 101c0 19 -6 32 -19 32c-32 0 -58 26 -58 58s26 58 59 58c50 0 73 -50 73 -109c0 -83 -46 -184 -125 -184z" />
    <glyph glyph-name="hyphen" unicode="-" horiz-adv-x="531" 
d="M90 229v62h350v-62h-350z" />
    <glyph glyph-name="period" unicode="." horiz-adv-x="182" 
d="M91 -10c-32 0 -58 27 -58 59c0 31 26 58 58 58s59 -27 59 -58c0 -32 -27 -59 -59 -59z" />
    <glyph glyph-name="slash" unicode="/" horiz-adv-x="591" 
d="M-18 -250l529 1000h84l-527 -1000h-86z" />
    <glyph glyph-name="zero" unicode="0" horiz-adv-x="682" 
d="M341 -10c-155 0 -271 165 -271 385c0 221 116 385 271 385s270 -164 270 -385c0 -220 -115 -385 -270 -385zM342 69c102 0 181 132 181 306s-79 307 -181 307c-103 0 -183 -133 -183 -307s80 -306 183 -306z" />
    <glyph glyph-name="one" unicode="1" horiz-adv-x="399" 
d="M189 0v643l-151 -120v107l158 120h82v-750h-89z" />
    <glyph glyph-name="two" unicode="2" horiz-adv-x="592" 
d="M43 0v61c345 354 392 395 392 481c0 92 -64 138 -140 140c-81 1 -143 -54 -143 -143l-86 1c-2 133 103 221 233 221c121 -1 217 -80 221 -207c4 -122 -62 -179 -354 -475h378v-79h-501z" />
    <glyph glyph-name="three" unicode="3" horiz-adv-x="599" 
d="M395 422c79 -36 133 -110 133 -200c0 -129 -103 -232 -234 -232c-130 0 -234 97 -234 218l88 1c0 -75 65 -136 146 -136c83 0 147 67 147 150c0 84 -64 149 -147 149h-59l-1 72h55h1c66 0 118 53 118 120c0 64 -52 114 -118 114c-63 0 -114 -48 -114 -108l-85 2
c0 105 87 188 199 188c110 0 198 -83 198 -188c0 -65 -37 -120 -93 -150z" />
    <glyph glyph-name="four" unicode="4" horiz-adv-x="605" 
d="M545 237v-79h-78v-158h-88v158h-361v57l340 535h109v-513h78zM120 237h259v420z" />
    <glyph glyph-name="five" unicode="5" horiz-adv-x="618" 
d="M301 -10c-90 0 -174 40 -226 105l57 60c38 -52 100 -83 165 -83c98 0 172 74 172 172c0 100 -75 175 -173 175c-51 0 -103 -21 -139 -59l-75 35l42 353h388v-78h-318l-30 -225c39 34 95 53 154 53c138 0 239 -107 239 -251c0 -149 -108 -257 -256 -257z" />
    <glyph glyph-name="six" unicode="6" horiz-adv-x="649" 
d="M589 258c5 -143 -110 -260 -253 -267c-147 -5 -269 104 -275 246c-3 67 23 129 65 179l261 334h104l-204 -252c15 3 33 4 50 4c136 -2 246 -110 252 -244zM334 68c101 6 174 89 168 188c-6 100 -87 175 -187 170s-172 -90 -166 -189c5 -99 85 -175 185 -169z" />
    <glyph glyph-name="seven" unicode="7" horiz-adv-x="556" 
d="M53 0l384 672h-399v78h500v-59l-386 -691h-99z" />
    <glyph glyph-name="eight" unicode="8" horiz-adv-x="573" 
d="M399 417c78 -37 129 -111 129 -199c0 -128 -105 -228 -242 -228c-136 0 -241 100 -241 228c0 88 51 162 128 199c-52 33 -85 89 -85 155c0 105 86 188 199 188c112 0 198 -83 198 -188c0 -66 -33 -122 -86 -155zM287 688c-69 0 -123 -53 -123 -122s54 -123 123 -123
c68 0 122 54 122 123s-54 122 -122 122zM286 69c86 0 153 69 153 155s-67 152 -153 152c-85 0 -152 -66 -152 -152s67 -155 152 -155z" />
    <glyph glyph-name="nine" unicode="9" horiz-adv-x="649" 
d="M589 513c3 -66 -23 -129 -64 -179l-262 -334h-104l208 256c-15 -7 -35 -8 -54 -8c-135 3 -246 111 -252 245c-6 143 110 259 254 266c146 5 268 -104 274 -246zM334 325c101 4 173 89 167 188c-5 98 -85 175 -186 169c-100 -5 -173 -89 -168 -188
c6 -100 87 -175 187 -169z" />
    <glyph glyph-name="colon" unicode=":" horiz-adv-x="298" 
d="M149 393c-32 0 -59 27 -59 59c0 31 27 58 59 58s58 -27 58 -58c0 -32 -26 -59 -58 -59zM149 -10c-32 0 -59 27 -59 59c0 31 27 58 59 58s58 -27 58 -58c0 -32 -26 -59 -58 -59z" />
    <glyph glyph-name="semicolon" unicode=";" horiz-adv-x="305" 
d="M150 393c-32 0 -58 27 -58 59c0 31 26 58 58 58s59 -27 59 -58c0 -32 -27 -59 -59 -59zM99 -186v44c53 2 82 133 50 133s-57 26 -57 58s25 58 58 58c114 0 75 -290 -51 -293z" />
    <glyph glyph-name="less" unicode="&#x3c;" horiz-adv-x="733" 
d="M642 663v-76l-481 -242l481 -243v-76l-552 279v81z" />
    <glyph glyph-name="equal" unicode="=" horiz-adv-x="721" 
d="M60 331v59h600v-59h-600zM60 140v59h600v-59h-600z" />
    <glyph glyph-name="greater" unicode="&#x3e;" horiz-adv-x="733" 
d="M90 663l552 -277v-81l-552 -279v76l481 243l-481 242v76z" />
    <glyph glyph-name="question" unicode="?" horiz-adv-x="560" 
d="M239 211v62c0 188 181 111 181 274c0 76 -59 130 -141 130c-80 0 -138 -57 -139 -134h-80c0 121 93 212 219 212c127 0 220 -89 220 -208c0 -196 -179 -152 -179 -265v-71h-81zM283 -10c-31 0 -58 26 -58 59c0 31 27 58 58 58c32 0 59 -27 59 -58c0 -33 -27 -59 -59 -59z
" />
    <glyph glyph-name="at" unicode="@" horiz-adv-x="606" 
d="M516 149h-55v34c-24 -27 -64 -45 -98 -45c-71 0 -127 55 -127 126c0 70 56 125 127 125c36 0 76 -20 98 -48v25c0 71 -62 127 -141 127c-114 0 -204 -96 -204 -217c0 -124 102 -220 229 -220h171v-56h-171c-160 0 -285 121 -285 276c0 152 115 273 260 273
c110 0 196 -80 196 -183v-217zM383 186c37 0 67 22 78 54v48c-11 31 -41 53 -78 53c-47 0 -83 -33 -83 -77c0 -45 36 -78 83 -78z" />
    <glyph glyph-name="A" unicode="A" horiz-adv-x="743" 
d="M624 0l-61 157h-384l-61 -157h-99l301 750h102l301 -750h-99zM208 234h326l-163 422z" />
    <glyph glyph-name="B" unicode="B" horiz-adv-x="645" 
d="M444 386c88 -22 153 -88 153 -187c0 -119 -92 -199 -207 -199h-315v750h256c116 0 209 -81 209 -200c0 -76 -38 -133 -96 -164zM449 542c0 70 -57 127 -128 127h-155v-256h155c71 0 128 58 128 129zM378 81c71 0 128 58 128 129c0 69 -57 127 -128 127h-212v-256h212z
" />
    <glyph glyph-name="C" unicode="C" horiz-adv-x="668" 
d="M417 -10c-213 0 -366 172 -366 385s153 385 366 385c76 0 147 -26 204 -70v-110c-57 62 -127 93 -204 93c-167 0 -280 -131 -280 -298s113 -298 280 -298c78 0 148 31 204 93v-110c-57 -44 -128 -70 -204 -70z" />
    <glyph glyph-name="D" unicode="D" horiz-adv-x="711" 
d="M75 0v750h210c207 0 375 -168 375 -375s-168 -375 -375 -375h-210zM166 81h119c158 0 284 130 284 294s-126 294 -284 294h-119v-588z" />
    <glyph glyph-name="E" unicode="E" horiz-adv-x="542" 
d="M490 669h-324v-253h282v-82h-282v-253h324v-81h-415v750h415v-81z" />
    <glyph glyph-name="F" unicode="F" horiz-adv-x="528" 
d="M490 669h-324v-253h282v-82h-282v-334h-91v750h415v-81z" />
    <glyph glyph-name="G" unicode="G" horiz-adv-x="740" 
d="M452 673c-163 0 -296 -117 -296 -301s133 -301 296 -301c46 0 91 11 132 31v217h-174v82h255v-353c-62 -39 -136 -64 -214 -64c-209 0 -380 156 -380 388c0 233 171 388 378 388c79 0 154 -25 216 -64v-114c-52 57 -132 91 -213 91z" />
    <glyph glyph-name="H" unicode="H" horiz-adv-x="731" 
d="M565 750h91v-750h-91v334h-399v-334h-91v750h91v-334h399v334z" />
    <glyph glyph-name="I" unicode="I" horiz-adv-x="241" 
d="M75 0v750h91v-750h-91z" />
    <glyph glyph-name="J" unicode="J" horiz-adv-x="379" 
d="M124 -10c-30 0 -57 4 -74 10v93c21 -7 44 -12 74 -12c46 0 84 38 84 84v585h91v-585c0 -97 -79 -175 -175 -175z" />
    <glyph glyph-name="K" unicode="K" horiz-adv-x="624" 
d="M595 90v-120l-429 415v-385h-91v750h91v-315l308 315h118l-332 -337z" />
    <glyph glyph-name="L" unicode="L" horiz-adv-x="475" 
d="M75 0v750h91v-669h275v-81h-366z" />
    <glyph glyph-name="M" unicode="M" horiz-adv-x="906" 
d="M735 750h96v-750h-90v618l-289 -434l-286 433v-617h-91v750h97l281 -418z" />
    <glyph glyph-name="N" unicode="N" horiz-adv-x="778" 
d="M613 750h90v-750h-87l-450 603v-603h-91v750h87l451 -604v604z" />
    <glyph glyph-name="O" unicode="O" horiz-adv-x="834" 
d="M417 -10c-213 0 -366 172 -366 385s153 385 366 385c212 0 366 -172 366 -385s-154 -385 -366 -385zM417 77c167 0 279 131 279 298s-112 298 -279 298c-166 0 -280 -131 -280 -298s114 -298 280 -298z" />
    <glyph glyph-name="P" unicode="P" horiz-adv-x="588" 
d="M350 750c117 0 211 -95 211 -211c0 -117 -94 -209 -211 -209h-184v-330h-91v750h275zM345 406c72 0 132 53 132 132c0 76 -61 131 -132 131h-179v-263h179z" />
    <glyph glyph-name="Q" unicode="Q" horiz-adv-x="827" 
d="M777 86h31v-86h-35c-37 0 -66 17 -95 46l-27 29c-62 -53 -143 -85 -234 -85c-213 0 -366 172 -366 385s153 385 366 385c212 0 366 -172 366 -385c0 -91 -28 -174 -76 -239l32 -34c11 -11 24 -16 38 -16zM417 77c69 0 128 22 174 60l-121 127l58 58l118 -123
c32 49 50 110 50 176c0 167 -112 298 -279 298c-166 0 -280 -131 -280 -298s114 -298 280 -298z" />
    <glyph glyph-name="R" unicode="R" horiz-adv-x="592" 
d="M391 340l189 -340h-102l-179 335h-133v-335h-91v750h275c116 0 211 -94 211 -212c0 -101 -74 -182 -170 -198zM166 410h182c72 0 129 58 129 130s-58 129 -129 129h-182v-259z" />
    <glyph glyph-name="S" unicode="S" horiz-adv-x="629" 
d="M325 -10c-123 0 -231 60 -283 145l66 67c30 -75 117 -125 220 -125c89 0 159 35 160 119c1 97 -90 132 -185 168c-104 39 -213 80 -213 201c0 127 105 195 231 195c116 0 204 -44 254 -104l-61 -62c-34 51 -98 87 -191 87c-76 0 -141 -34 -141 -109
c0 -74 78 -106 165 -139c109 -43 233 -91 233 -232c0 -144 -112 -211 -255 -211z" />
    <glyph glyph-name="T" unicode="T" horiz-adv-x="550" 
d="M526 750v-80h-205v-670h-91v670h-205v80h501z" />
    <glyph glyph-name="U" unicode="U" horiz-adv-x="730" 
d="M365 -10c-159 0 -285 113 -285 256v504h91v-489c0 -106 86 -190 194 -190s194 84 194 190v489h92v-504c0 -143 -127 -256 -286 -256z" />
    <glyph glyph-name="V" unicode="V" horiz-adv-x="718" 
d="M608 750h103l-301 -750h-103l-301 750h103l250 -645z" />
    <glyph glyph-name="W" unicode="W" horiz-adv-x="1083" 
d="M995 750h98l-316 -750h-99l-136 322l-136 -322h-98l-318 750h99l271 -642l136 322l-135 320h94l269 -642z" />
    <glyph glyph-name="X" unicode="X" horiz-adv-x="650" 
d="M630 0h-105l-201 306l-200 -306h-105l255 381l-248 369h105l193 -294l194 294h105l-249 -369z" />
    <glyph glyph-name="Y" unicode="Y" horiz-adv-x="653" 
d="M634 750l-261 -394v-356h-92v354l-262 396h103l205 -317l205 317h102z" />
    <glyph glyph-name="Z" unicode="Z" horiz-adv-x="659" 
d="M170 81h443v-81h-568v48l431 621h-420v81h545v-48z" />
    <glyph glyph-name="bracketleft" unicode="[" horiz-adv-x="275" 
d="M79 -335v1170h206v-68h-129v-1034h129v-68h-206z" />
    <glyph glyph-name="backslash" unicode="\" horiz-adv-x="591" 
d="M511 -250l-529 1000h86l527 -1000h-84z" />
    <glyph glyph-name="bracketright" unicode="]" horiz-adv-x="275" 
d="M79 -335v68h129v1034h-129v68h206v-1170h-206z" />
    <glyph glyph-name="asciicircum" unicode="^" horiz-adv-x="698" 
d="M667 198h-76l-242 481l-243 -481h-76l278 552h81z" />
    <glyph glyph-name="underscore" unicode="_" horiz-adv-x="681" 
d="M90 -61v61h500v-61h-500z" />
    <glyph glyph-name="grave" unicode="`" horiz-adv-x="50" 
d="M140 595l-110 155h91l90 -155h-71z" />
    <glyph glyph-name="a" unicode="a" horiz-adv-x="537" 
d="M259 510c115 0 207 -61 207 -190v-320h-78l-5 71c-54 -48 -120 -81 -185 -81c-89 0 -153 64 -153 153s68 168 243 139l91 -15v59c0 76 -56 109 -124 109c-59 0 -104 -24 -134 -69l-61 54c38 55 104 90 199 90zM135 147c0 -47 33 -78 83 -78c58 0 114 33 161 76v57l-82 14
c-126 23 -162 -20 -162 -69z" />
    <glyph glyph-name="b" unicode="b" horiz-adv-x="595" 
d="M325 510c141 0 230 -115 230 -260s-89 -260 -230 -260c-70 0 -128 31 -167 82l-4 -72h-79v750h87v-317c39 47 95 77 163 77zM311 69c98 0 158 80 158 181s-60 182 -158 182c-72 0 -130 -54 -149 -128v-108c19 -74 77 -127 149 -127z" />
    <glyph glyph-name="c" unicode="c" horiz-adv-x="445" 
d="M276 -10c-147 0 -236 111 -236 260s89 260 236 260c41 0 90 -10 129 -40v-89c-29 32 -73 54 -120 54c-99 0 -158 -80 -158 -185s59 -185 158 -185c48 0 92 22 120 54v-88c-38 -30 -88 -41 -129 -41z" />
    <glyph glyph-name="d" unicode="d" horiz-adv-x="595" 
d="M434 750h86v-750h-79l-4 72c-40 -51 -97 -82 -167 -82c-141 0 -230 115 -230 260s89 260 230 260c68 0 125 -30 164 -78v318zM284 69c72 0 131 53 150 127v108c-19 74 -78 128 -150 128c-98 0 -157 -81 -157 -182s59 -181 157 -181z" />
    <glyph glyph-name="e" unicode="e" horiz-adv-x="545" 
d="M505 250c0 -9 0 -19 -1 -29h-378c9 -92 62 -154 155 -154c60 0 98 21 138 83l62 -43c-41 -74 -109 -117 -203 -117c-148 0 -238 110 -238 259s91 261 238 261c143 0 227 -108 227 -260zM280 434c-87 0 -139 -58 -152 -144h297c-9 88 -60 144 -145 144z" />
    <glyph glyph-name="f" unicode="f" horiz-adv-x="368" 
d="M213 607v-107h131v-69h-131v-431h-89v431h-84v69h84v112c0 83 69 148 154 148c36 0 78 -8 114 -52l-50 -54c-14 19 -37 32 -63 32c-39 0 -66 -34 -66 -79z" />
    <glyph glyph-name="g" unicode="g" horiz-adv-x="596" 
d="M441 500h80v-494c0 -146 -91 -256 -236 -256c-63 0 -112 18 -154 47v96c40 -38 91 -65 160 -65c85 0 143 69 143 178v63c-40 -49 -97 -79 -164 -79c-141 0 -230 115 -230 260c0 146 89 260 230 260c69 0 127 -32 167 -83zM284 69c70 0 130 54 150 128v106
c-20 75 -80 129 -150 129c-98 0 -157 -81 -157 -182c0 -100 59 -181 157 -181z" />
    <glyph glyph-name="h" unicode="h" horiz-adv-x="588" 
d="M322 510c112 0 195 -81 195 -194v-316h-89v306c0 72 -56 126 -130 126c-75 0 -135 -58 -135 -130v-302h-88v750h88v-313c38 45 94 73 159 73z" />
    <glyph glyph-name="i" unicode="i" horiz-adv-x="273" 
d="M137 593c-32 0 -59 25 -59 57c0 33 27 59 59 59c31 0 58 -26 58 -59c0 -32 -27 -57 -58 -57zM92 0v500h88v-500h-88z" />
    <glyph glyph-name="j" unicode="j" horiz-adv-x="265" 
d="M149 593c-32 0 -59 25 -59 57c0 33 27 59 59 59s58 -26 58 -59c0 -32 -26 -57 -58 -57zM40 -260c-23 0 -52 7 -65 16v77c14 -11 38 -19 55 -19c42 0 75 34 75 79v607h88v-612c0 -83 -67 -148 -153 -148z" />
    <glyph glyph-name="k" unicode="k" horiz-adv-x="507" 
d="M495 58v-108l-332 298v-248h-88v750h88v-445l212 195h112l-239 -220z" />
    <glyph glyph-name="l" unicode="l" horiz-adv-x="327" 
d="M232 -10c-94 0 -153 61 -153 150v610h88l1 -610c0 -49 25 -74 66 -74c22 0 39 7 54 23l49 -60c-24 -25 -60 -39 -105 -39z" />
    <glyph glyph-name="m" unicode="m" horiz-adv-x="901" 
d="M644 510c108 0 186 -79 186 -188v-322h-89v312c0 68 -51 120 -119 120c-71 0 -125 -56 -125 -125v-307h-89v312c0 68 -51 120 -119 120c-70 0 -126 -56 -126 -125v-307h-88v500h81l4 -61c35 43 88 71 152 71c71 0 129 -35 160 -91c37 55 99 91 172 91z" />
    <glyph glyph-name="n" unicode="n" horiz-adv-x="588" 
d="M322 510c112 0 195 -81 195 -194v-316h-89v306c0 72 -56 126 -130 126c-75 0 -135 -58 -135 -130v-302h-88v500h81l4 -66c38 46 95 76 162 76z" />
    <glyph glyph-name="o" unicode="o" horiz-adv-x="567" 
d="M284 -10c-146 0 -244 116 -244 260c0 145 98 260 244 260c145 0 244 -115 244 -260c0 -144 -99 -260 -244 -260zM284 69c96 0 157 80 157 181s-61 182 -157 182c-98 0 -157 -81 -157 -182s59 -181 157 -181z" />
    <glyph glyph-name="p" unicode="p" horiz-adv-x="595" 
d="M325 510c141 0 230 -115 230 -260s-89 -260 -230 -260c-68 0 -124 30 -163 77v-317h-87v750h87v-67c39 47 95 77 163 77zM311 69c98 0 158 80 158 181s-60 182 -158 182c-72 0 -130 -54 -149 -128v-108c19 -74 77 -127 149 -127z" />
    <glyph glyph-name="q" unicode="q" horiz-adv-x="595" 
d="M434 500h86v-750h-86v318c-39 -48 -96 -78 -164 -78c-141 0 -230 115 -230 260s89 260 230 260c68 0 125 -30 164 -78v68zM284 69c72 0 131 53 150 127v108c-19 74 -78 128 -150 128c-98 0 -157 -81 -157 -182s59 -181 157 -181z" />
    <glyph glyph-name="r" unicode="r" horiz-adv-x="399" 
d="M308 510c53 0 81 -9 109 -30l-43 -64c-11 6 -34 16 -70 16c-73 0 -141 -63 -141 -152v-280h-88v500h81l4 -76c36 52 90 86 148 86z" />
    <glyph glyph-name="s" unicode="s" horiz-adv-x="474" 
d="M242 -10c-81 0 -168 33 -205 77l46 60c25 -36 95 -63 154 -64c61 -2 110 25 110 72c0 51 -58 67 -122 86c-76 24 -163 50 -163 143c0 89 88 146 184 146c64 0 133 -24 173 -56l-49 -60c-27 25 -70 42 -109 45c-51 4 -109 -18 -109 -64c0 -51 56 -68 117 -86
c78 -22 167 -47 167 -147c0 -89 -84 -152 -194 -152z" />
    <glyph glyph-name="t" unicode="t" horiz-adv-x="349" 
d="M297 89l49 -60c-24 -25 -59 -39 -105 -39c-93 0 -153 61 -153 150v291h-65v69h65v170h88v-170h136v-69h-135v-291c0 -49 25 -74 66 -74c22 0 39 7 54 23z" />
    <glyph glyph-name="u" unicode="u" horiz-adv-x="594" 
d="M430 500h89v-500h-81l-5 67c-37 -47 -94 -77 -159 -77c-111 0 -197 89 -197 199v311h88v-302c0 -72 58 -129 131 -129c74 0 134 57 134 129v302z" />
    <glyph glyph-name="v" unicode="v" horiz-adv-x="501" 
d="M399 500h94l-200 -500h-85l-200 500h94l149 -396z" />
    <glyph glyph-name="w" unicode="w" horiz-adv-x="717" 
d="M610 500h98l-171 -500h-97l-83 238l-80 -238h-96l-172 500h100l125 -394l82 247l-51 147h87l131 -396z" />
    <glyph glyph-name="x" unicode="x" horiz-adv-x="512" 
d="M518 500l-209 -250l209 -250h-108l-154 185l-154 -185h-108l208 250l-208 250h106l156 -186l155 186h107z" />
    <glyph glyph-name="y" unicode="y" horiz-adv-x="594" 
d="M519 500v-513c0 -137 -80 -243 -241 -243c-73 0 -128 18 -174 48v96c44 -38 103 -65 181 -65c99 0 145 63 145 164v77c-37 -46 -93 -74 -156 -74c-111 0 -197 89 -197 199v311h88v-302c0 -72 58 -129 131 -129c74 0 134 57 134 129v302h89z" />
    <glyph glyph-name="z" unicode="z" horiz-adv-x="528" 
d="M48 0v62l308 364h-302v74h419v-60l-308 -366h315v-74h-432z" />
    <glyph glyph-name="braceleft" unicode="{" horiz-adv-x="330" 
d="M230 -323c-60 0 -105 59 -105 136v242c0 94 -8 133 -75 164v60c68 33 75 72 75 164v238c0 77 45 136 105 136h47v-62c-62 0 -82 -15 -82 -80v-247c0 -74 -9 -135 -68 -179c59 -44 68 -104 68 -179v-251c0 -53 18 -75 82 -75v-67h-47z" />
    <glyph glyph-name="bar" unicode="|" horiz-adv-x="291" 
d="M116 -150v900h58v-900h-58z" />
    <glyph glyph-name="braceright" unicode="}" horiz-adv-x="330" 
d="M53 -323v67c64 0 82 22 82 75v251c0 75 9 135 67 179c-58 44 -67 105 -67 179v247c0 65 -20 80 -82 80v66h47c60 0 104 -60 104 -136v-242c0 -92 8 -131 75 -164v-60c-66 -31 -75 -69 -75 -164v-242c0 -77 -44 -136 -104 -136h-47z" />
    <glyph glyph-name="asciitilde" unicode="~" horiz-adv-x="562" 
d="M388 179c-64 0 -101 43 -128 74c-26 30 -48 51 -83 51c-54 0 -90 -50 -87 -113h-49c-6 95 54 162 136 162c54 0 90 -30 124 -73c23 -29 46 -53 83 -53c52 0 91 45 87 113h49c8 -92 -52 -161 -132 -161z" />
    <glyph glyph-name="exclamdown" unicode="&#xa1;" horiz-adv-x="298" 
d="M149 383c-32 0 -59 26 -59 59c0 31 27 58 59 58s58 -27 58 -58c0 -33 -26 -59 -58 -59zM104 -250l10 531h69l10 -531h-89z" />
    <glyph glyph-name="cent" unicode="&#xa2;" horiz-adv-x="525" 
d="M321 532c-101 0 -182 -81 -182 -182s81 -181 182 -181c50 0 99 15 133 47v-88c-35 -23 -77 -36 -122 -38v-91h-56v94c-128 21 -225 127 -225 257s97 236 225 257v94h56v-91c44 -2 86 -15 122 -37v-89c-34 32 -83 48 -133 48z" />
    <glyph glyph-name="sterling" unicode="&#xa3;" horiz-adv-x="609" 
d="M185 64h380v-64h-449v337h-80v61h80v132c0 135 93 230 224 230c94 0 185 -66 211 -157l-66 -29c-13 67 -77 116 -145 116c-93 0 -155 -63 -155 -160v-132h186v-61h-186v-273z" />
    <glyph glyph-name="currency" unicode="&#xa4;" horiz-adv-x="605" 
d="M122 133l-48 51l51 50c-58 76 -57 182 0 258l-50 49l48 51l51 -52c76 58 182 59 258 1l51 51l49 -49l-51 -50c58 -77 58 -183 0 -260l51 -49l-48 -51l-52 52c-76 -58 -183 -58 -259 0zM194 255c61 -60 157 -61 217 0c59 60 59 157 0 216c-60 59 -156 59 -216 -1
c-59 -59 -60 -156 -1 -215z" />
    <glyph glyph-name="yen" unicode="&#xa5;" horiz-adv-x="674" 
d="M376 362v-8h202v-59h-202v-96h202v-55h-202v-144h-78v144h-200v55h200v96h-200v59h200v8l-258 388h85l211 -326l213 326h84z" />
    <glyph glyph-name="brokenbar" unicode="&#xa6;" horiz-adv-x="291" 
d="M116 390v360h58v-360h-58zM116 -150v360h58v-360h-58z" />
    <glyph glyph-name="section" unicode="&#xa7;" horiz-adv-x="619" 
d="M517 248c24 -22 39 -51 39 -89c0 -96 -114 -157 -242 -157c-116 0 -213 51 -249 115l57 33c25 -48 96 -86 195 -86c90 0 172 33 172 96c0 134 -390 80 -390 273c0 36 13 65 40 90c-24 22 -39 50 -39 87c0 99 106 150 213 150c81 0 157 -29 200 -72l-46 -38
c-33 31 -88 52 -150 52c-77 0 -150 -31 -150 -89c0 -134 390 -81 390 -275c0 -35 -15 -65 -40 -90zM167 435c0 -92 180 -98 295 -152c17 15 27 34 27 56c0 90 -180 96 -295 149c-18 -14 -27 -31 -27 -53z" />
    <glyph glyph-name="dieresis" unicode="&#xa8;" horiz-adv-x="50" 
d="M121 593c-32 0 -59 25 -59 57c0 33 27 59 59 59s58 -26 58 -59c0 -32 -26 -57 -58 -57zM308 593c-31 0 -58 25 -58 57c0 33 27 59 58 59c32 0 58 -26 58 -59c0 -32 -26 -57 -58 -57z" />
    <glyph glyph-name="copyright" unicode="&#xa9;" horiz-adv-x="872" 
d="M436 -10c-212 0 -385 173 -385 385s173 385 385 385s385 -173 385 -385s-173 -385 -385 -385zM436 42c186 0 334 148 334 333c0 186 -148 334 -334 334c-185 0 -333 -148 -333 -334c0 -185 148 -333 333 -333zM449 174c-113 0 -204 88 -204 197c0 111 91 199 204 199
c39 0 74 -10 106 -31v-58l-4 -2c-27 23 -64 36 -99 36c-81 0 -147 -58 -147 -144c0 -84 66 -143 147 -143c35 0 73 13 98 34h5v-57c-30 -20 -66 -31 -106 -31z" />
    <glyph glyph-name="ordfeminine" unicode="&#xaa;" horiz-adv-x="409" 
d="M307 750h47v-300h-47v64c-25 -42 -70 -70 -123 -70c-84 0 -152 69 -152 156c0 86 68 156 152 156c53 0 98 -28 123 -71v65zM192 485c64 0 115 52 115 115c0 62 -51 114 -115 114c-63 0 -113 -52 -113 -114c0 -63 50 -115 113 -115z" />
    <glyph glyph-name="guillemotleft" unicode="&#xab;" horiz-adv-x="638" 
d="M263 95l-152 184l152 184h75l-152 -184l152 -184h-75zM452 95l-152 184l152 184h76l-152 -184l152 -184h-76z" />
    <glyph glyph-name="logicalnot" unicode="&#xac;" horiz-adv-x="783" 
d="M633 117v256h-543v59h602v-315h-59z" />
    <glyph glyph-name="uni00AD" unicode="&#xad;" horiz-adv-x="595" 
d="M90 229v62h350v-62h-350z" />
    <glyph glyph-name="registered" unicode="&#xae;" horiz-adv-x="872" 
d="M436 760c212 0 385 -173 385 -385s-173 -385 -385 -385s-385 173 -385 385s173 385 385 385zM436 42c186 0 334 148 334 333c0 186 -148 334 -334 334c-185 0 -333 -148 -333 -334c0 -185 148 -333 333 -333zM574 459c0 -50 -32 -92 -77 -107l94 -172h-53l-93 167h-64
v-167h-47v390h127c63 0 113 -49 113 -111zM381 522v-128h80c36 0 65 29 65 65c0 35 -29 63 -65 63h-80z" />
    <glyph glyph-name="macron" unicode="&#xaf;" horiz-adv-x="61" 
d="M30 601v59h310v-59h-310z" />
    <glyph glyph-name="degree" unicode="&#xb0;" horiz-adv-x="489" 
d="M244 492c-73 0 -134 60 -134 134s61 134 134 134c74 0 134 -60 134 -134s-60 -134 -134 -134zM244 539c49 0 87 38 87 87s-38 87 -87 87c-48 0 -87 -38 -87 -87s39 -87 87 -87z" />
    <glyph glyph-name="plusminus" unicode="&#xb1;" horiz-adv-x="790" 
d="M425 429h315v-59h-315v-180h-59v180h-316v59h316v180h59v-180zM50 0v55h690v-55h-690z" />
    <glyph glyph-name="uni00B2" unicode="&#xb2;" horiz-adv-x="341" 
d="M43 380v33c171 176 193 196 193 237c0 45 -31 68 -68 69c-40 0 -70 -26 -70 -70h-45c-1 67 52 111 117 111c61 0 109 -40 111 -102s-30 -91 -174 -237h186v-41h-250z" />
    <glyph glyph-name="uni00B3" unicode="&#xb3;" horiz-adv-x="366" 
d="M230 591c39 -18 65 -54 65 -99c0 -65 -51 -117 -117 -117c-65 0 -118 48 -118 109l46 1c0 -37 33 -66 72 -66c40 0 71 33 71 73c0 41 -31 73 -71 73h-30v38h27c33 0 57 25 57 59c0 31 -24 54 -57 54c-30 0 -55 -23 -55 -51l-45 1c0 53 45 94 100 94s100 -41 100 -94
c0 -32 -18 -59 -45 -75z" />
    <glyph glyph-name="acute" unicode="&#xb4;" horiz-adv-x="50" 
d="M30 595l90 155h91l-109 -155h-72z" />
    <glyph glyph-name="uni00B5" unicode="&#xb5;" horiz-adv-x="595" 
d="M434 500h88v-500h-88v72c-37 -50 -94 -82 -158 -82c-49 0 -94 18 -128 48v-288h-68v750h89v-302c0 -72 58 -129 130 -129c75 0 135 57 135 129v302z" />
    <glyph glyph-name="paragraph" unicode="&#xb6;" horiz-adv-x="621" 
d="M309 -150v565h-31c-110 0 -178 59 -178 168s68 167 178 167h80v-900h-49zM451 -150v900h50v-900h-50z" />
    <glyph glyph-name="periodcentered" unicode="&#xb7;" horiz-adv-x="274" 
d="M137 314c-25 0 -47 19 -47 46c0 25 22 47 47 47s47 -22 47 -47c0 -27 -22 -46 -47 -46z" />
    <glyph glyph-name="cedilla" unicode="&#xb8;" horiz-adv-x="50" 
d="M146 -260c-45 0 -96 28 -116 63l42 18c15 -20 47 -36 74 -36c32 0 56 25 56 57c0 47 -44 68 -100 46l-36 24l44 88h46l-33 -67c70 14 125 -27 125 -91c0 -56 -45 -102 -102 -102z" />
    <glyph glyph-name="uni00B9" unicode="&#xb9;" horiz-adv-x="262" 
d="M94 375v334h-56v41h103v-375h-47z" />
    <glyph glyph-name="ordmasculine" unicode="&#xba;" horiz-adv-x="385" 
d="M192 444c-89 0 -160 69 -160 156c0 86 71 156 160 156c90 0 162 -70 162 -156c0 -87 -72 -156 -162 -156zM192 485c64 0 115 52 115 115c0 62 -51 114 -115 114c-63 0 -113 -52 -113 -114c0 -63 50 -115 113 -115z" />
    <glyph glyph-name="guillemotright" unicode="&#xbb;" horiz-adv-x="638" 
d="M110 95l152 184l-152 184h75l152 -184l-152 -184h-75zM299 95l152 184l-152 184h76l152 -184l-152 -184h-76z" />
    <glyph glyph-name="questiondown" unicode="&#xbf;" horiz-adv-x="556" 
d="M274 517c32 0 59 -26 59 -58s-27 -59 -59 -59s-58 27 -58 59s26 58 58 58zM318 296v-61c0 -189 -181 -112 -181 -275c0 -76 60 -130 141 -130c80 0 138 57 140 134h79c1 -121 -93 -212 -219 -212s-219 89 -219 208c0 196 178 152 178 266v70h81z" />
    <glyph glyph-name="Agrave" unicode="&#xc0;" horiz-adv-x="743" 
d="M403 845h-71l-110 155h91zM624 0l-61 157h-384l-61 -157h-99l301 750h102l301 -750h-99zM208 234h326l-163 422z" />
    <glyph glyph-name="Aacute" unicode="&#xc1;" horiz-adv-x="743" 
d="M518 1000l-109 -155h-72l90 155h91zM624 0l-61 157h-384l-61 -157h-99l301 750h102l301 -750h-99zM208 234h326l-163 422z" />
    <glyph glyph-name="Acircumflex" unicode="&#xc2;" horiz-adv-x="743" 
d="M371 957l-77 -128h-72l102 171h94l102 -171h-72zM624 0l-61 157h-384l-61 -157h-99l301 750h102l301 -750h-99zM208 234h326l-163 422z" />
    <glyph glyph-name="Atilde" unicode="&#xc3;" horiz-adv-x="743" 
d="M263 845h-56c-11 76 32 129 94 129c41 0 71 -21 93 -55c12 -20 25 -29 45 -29c31 0 48 30 40 75h56c11 -74 -30 -129 -94 -129c-38 0 -68 17 -93 54c-13 20 -26 29 -45 29c-31 0 -48 -30 -40 -74zM624 0l-61 157h-384l-61 -157h-99l301 750h102l301 -750h-99zM208 234
h326l-163 422z" />
    <glyph glyph-name="Adieresis" unicode="&#xc4;" horiz-adv-x="743" 
d="M278 843c-32 0 -59 25 -59 57c0 33 27 59 59 59s58 -26 58 -59c0 -32 -26 -57 -58 -57zM465 843c-31 0 -58 25 -58 57c0 33 27 59 58 59c32 0 58 -26 58 -59c0 -32 -26 -57 -58 -57zM624 0l-61 157h-384l-61 -157h-99l301 750h102l301 -750h-99zM208 234h326l-163 422z
" />
    <glyph glyph-name="Aring" unicode="&#xc5;" horiz-adv-x="743" 
d="M624 0l-61 157h-384l-61 -157h-99l293 731c-26 19 -43 49 -43 82c0 56 47 103 103 103s102 -47 102 -103c0 -34 -17 -65 -44 -83l293 -730h-99zM372 876c-34 0 -60 -29 -60 -63c0 -35 26 -61 60 -61s61 26 61 61c0 34 -27 63 -61 63zM208 234h326l-163 422z" />
    <glyph glyph-name="AE" unicode="&#xc6;" horiz-adv-x="895" 
d="M19 0l301 750h524v-78h-326v-261h284v-71h-284v-261h326v-79h-415v164h-247l-61 -164h-102zM213 235h217v437h-46z" />
    <glyph glyph-name="Ccedilla" unicode="&#xc7;" horiz-adv-x="668" 
d="M417 673c-167 0 -280 -131 -280 -298s113 -298 280 -298c78 0 148 31 204 93v-110c-52 -40 -116 -66 -186 -69l-28 -58c70 14 125 -27 125 -91c0 -56 -45 -102 -102 -102c-45 0 -96 28 -116 63l42 18c15 -20 47 -36 74 -36c32 0 56 25 56 57c0 47 -44 68 -100 46l-36 24
l39 79c-198 14 -338 180 -338 384c0 213 153 385 366 385c76 0 147 -26 204 -70v-110c-57 62 -127 93 -204 93z" />
    <glyph glyph-name="Egrave" unicode="&#xc8;" horiz-adv-x="542" 
d="M314 845h-71l-110 155h91zM490 669h-324v-253h282v-82h-282v-253h324v-81h-415v750h415v-81z" />
    <glyph glyph-name="Eacute" unicode="&#xc9;" horiz-adv-x="542" 
d="M429 1000l-109 -155h-72l90 155h91zM490 669h-324v-253h282v-82h-282v-253h324v-81h-415v750h415v-81z" />
    <glyph glyph-name="Ecircumflex" unicode="&#xca;" horiz-adv-x="542" 
d="M282 957l-77 -128h-72l102 171h94l102 -171h-72zM490 669h-324v-253h282v-82h-282v-253h324v-81h-415v750h415v-81z" />
    <glyph glyph-name="Edieresis" unicode="&#xcb;" horiz-adv-x="542" 
d="M189 843c-32 0 -59 25 -59 57c0 33 27 59 59 59s58 -26 58 -59c0 -32 -26 -57 -58 -57zM376 843c-31 0 -58 25 -58 57c0 33 27 59 58 59c32 0 58 -26 58 -59c0 -32 -26 -57 -58 -57zM490 669h-324v-253h282v-82h-282v-253h324v-81h-415v750h415v-81z" />
    <glyph glyph-name="Igrave" unicode="&#xcc;" horiz-adv-x="241" 
d="M81 845l-110 155h91l90 -155h-71zM75 0v750h91v-750h-91z" />
    <glyph glyph-name="Iacute" unicode="&#xcd;" horiz-adv-x="241" 
d="M86 845l90 155h91l-109 -155h-72zM75 0v750h91v-750h-91z" />
    <glyph glyph-name="Icircumflex" unicode="&#xce;" horiz-adv-x="241" 
d="M-29 829l102 171h94l102 -171h-72l-77 128l-77 -128h-72zM75 0v750h91v-750h-91z" />
    <glyph glyph-name="Idieresis" unicode="&#xcf;" horiz-adv-x="241" 
d="M27 843c-32 0 -59 25 -59 57c0 33 27 59 59 59s58 -26 58 -59c0 -32 -26 -57 -58 -57zM214 843c-31 0 -58 25 -58 57c0 33 27 59 58 59c32 0 58 -26 58 -59c0 -32 -26 -57 -58 -57zM75 0v750h91v-750h-91z" />
    <glyph glyph-name="Eth" unicode="&#xd0;" horiz-adv-x="711" 
d="M285 750c207 0 375 -168 375 -375s-168 -375 -375 -375h-210v344h-77v63h77v343h210zM285 81c158 0 284 130 284 294s-126 294 -284 294h-119v-262h131v-63h-131v-263h119z" />
    <glyph glyph-name="Ntilde" unicode="&#xd1;" horiz-adv-x="778" 
d="M280 845h-56c-11 76 32 129 94 129c41 0 71 -21 93 -55c12 -20 25 -29 45 -29c31 0 48 30 40 75h56c11 -74 -30 -129 -94 -129c-38 0 -68 17 -93 54c-13 20 -26 29 -45 29c-31 0 -48 -30 -40 -74zM613 750h90v-750h-87l-450 603v-603h-91v750h87l451 -604v604z" />
    <glyph glyph-name="Ograve" unicode="&#xd2;" horiz-adv-x="834" 
d="M378 845l-110 155h91l90 -155h-71zM417 -10c-213 0 -366 172 -366 385s153 385 366 385c212 0 366 -172 366 -385s-154 -385 -366 -385zM417 77c167 0 279 131 279 298s-112 298 -279 298c-166 0 -280 -131 -280 -298s114 -298 280 -298z" />
    <glyph glyph-name="Oacute" unicode="&#xd3;" horiz-adv-x="834" 
d="M383 845l90 155h91l-109 -155h-72zM417 -10c-213 0 -366 172 -366 385s153 385 366 385c212 0 366 -172 366 -385s-154 -385 -366 -385zM417 77c167 0 279 131 279 298s-112 298 -279 298c-166 0 -280 -131 -280 -298s114 -298 280 -298z" />
    <glyph glyph-name="Ocircumflex" unicode="&#xd4;" horiz-adv-x="834" 
d="M268 829l102 171h94l102 -171h-72l-77 128l-77 -128h-72zM417 -10c-213 0 -366 172 -366 385s153 385 366 385c212 0 366 -172 366 -385s-154 -385 -366 -385zM417 77c167 0 279 131 279 298s-112 298 -279 298c-166 0 -280 -131 -280 -298s114 -298 280 -298z" />
    <glyph glyph-name="Otilde" unicode="&#xd5;" horiz-adv-x="834" 
d="M487 836c-38 0 -68 17 -93 54c-13 20 -26 29 -45 29c-31 0 -48 -30 -40 -74h-56c-11 76 32 129 94 129c41 0 71 -21 93 -55c12 -20 25 -29 45 -29c31 0 48 30 40 75h56c11 -74 -30 -129 -94 -129zM417 -10c-213 0 -366 172 -366 385s153 385 366 385
c212 0 366 -172 366 -385s-154 -385 -366 -385zM417 77c167 0 279 131 279 298s-112 298 -279 298c-166 0 -280 -131 -280 -298s114 -298 280 -298z" />
    <glyph glyph-name="Odieresis" unicode="&#xd6;" horiz-adv-x="834" 
d="M324 843c-32 0 -59 25 -59 57c0 33 27 59 59 59s58 -26 58 -59c0 -32 -26 -57 -58 -57zM511 843c-31 0 -58 25 -58 57c0 33 27 59 58 59c32 0 58 -26 58 -59c0 -32 -26 -57 -58 -57zM417 -10c-213 0 -366 172 -366 385s153 385 366 385c212 0 366 -172 366 -385
s-154 -385 -366 -385zM417 77c167 0 279 131 279 298s-112 298 -279 298c-166 0 -280 -131 -280 -298s114 -298 280 -298z" />
    <glyph glyph-name="multiply" unicode="&#xd7;" horiz-adv-x="736" 
d="M626 505l-196 -195l196 -195l-49 -48l-195 195l-195 -195l-49 48l195 195l-195 195l49 48l195 -195l195 195z" />
    <glyph glyph-name="Oslash" unicode="&#xd8;" horiz-adv-x="834" 
d="M651 675c82 -71 132 -179 132 -300c0 -213 -154 -385 -366 -385c-71 0 -136 19 -190 53l-39 -58h-64l60 89c-83 71 -133 179 -133 301c0 213 153 385 366 385c72 0 137 -20 191 -54l39 58h64zM137 375c0 -93 35 -175 95 -229l328 489c-40 24 -89 38 -143 38
c-166 0 -280 -131 -280 -298zM417 77c167 0 279 131 279 298c0 92 -34 174 -93 228l-328 -489c40 -24 89 -37 142 -37z" />
    <glyph glyph-name="Ugrave" unicode="&#xd9;" horiz-adv-x="730" 
d="M326 845l-110 155h91l90 -155h-71zM365 -10c-159 0 -285 113 -285 256v504h91v-489c0 -106 86 -190 194 -190s194 84 194 190v489h92v-504c0 -143 -127 -256 -286 -256z" />
    <glyph glyph-name="Uacute" unicode="&#xda;" horiz-adv-x="730" 
d="M331 845l90 155h91l-109 -155h-72zM365 -10c-159 0 -285 113 -285 256v504h91v-489c0 -106 86 -190 194 -190s194 84 194 190v489h92v-504c0 -143 -127 -256 -286 -256z" />
    <glyph glyph-name="Ucircumflex" unicode="&#xdb;" horiz-adv-x="730" 
d="M216 829l102 171h94l102 -171h-72l-77 128l-77 -128h-72zM365 -10c-159 0 -285 113 -285 256v504h91v-489c0 -106 86 -190 194 -190s194 84 194 190v489h92v-504c0 -143 -127 -256 -286 -256z" />
    <glyph glyph-name="Udieresis" unicode="&#xdc;" horiz-adv-x="730" 
d="M272 843c-32 0 -59 25 -59 57c0 33 27 59 59 59s58 -26 58 -59c0 -32 -26 -57 -58 -57zM459 843c-31 0 -58 25 -58 57c0 33 27 59 58 59c32 0 58 -26 58 -59c0 -32 -26 -57 -58 -57zM365 -10c-159 0 -285 113 -285 256v504h91v-489c0 -106 86 -190 194 -190
s194 84 194 190v489h92v-504c0 -143 -127 -256 -286 -256z" />
    <glyph glyph-name="Yacute" unicode="&#xdd;" horiz-adv-x="653" 
d="M474 1000l-109 -155h-72l90 155h91zM634 750l-261 -394v-356h-92v354l-262 396h103l205 -317l205 317h102z" />
    <glyph glyph-name="Thorn" unicode="&#xde;" horiz-adv-x="590" 
d="M348 646c117 0 210 -94 210 -212c0 -116 -93 -208 -210 -208h-185v-226h-88v646v101h88v-101h185zM345 304c74 0 133 59 133 132c0 72 -59 130 -133 130h-182v-262h182z" />
    <glyph glyph-name="germandbls" unicode="&#xdf;" horiz-adv-x="672" 
d="M482 384c71 -35 119 -105 119 -188c0 -115 -88 -206 -196 -206c-56 0 -127 24 -165 61l38 67c24 -24 69 -46 111 -46c65 2 123 56 123 128c0 75 -62 136 -139 136h-56v74h24c74 0 134 59 134 134c0 74 -60 128 -144 128c-87 0 -152 -59 -152 -138v-534h-89v534
c0 125 104 216 240 216c133 0 228 -87 228 -205c0 -66 -29 -123 -76 -161z" />
    <glyph glyph-name="agrave" unicode="&#xe0;" horiz-adv-x="537" 
d="M303 595h-71l-110 155h91zM259 510c115 0 207 -61 207 -190v-320h-78l-5 71c-54 -48 -120 -81 -185 -81c-89 0 -153 64 -153 153s68 168 243 139l91 -15v59c0 76 -56 109 -124 109c-59 0 -104 -24 -134 -69l-61 54c38 55 104 90 199 90zM135 147c0 -47 33 -78 83 -78
c58 0 114 33 161 76v57l-82 14c-126 23 -162 -20 -162 -69z" />
    <glyph glyph-name="aacute" unicode="&#xe1;" horiz-adv-x="537" 
d="M418 750l-109 -155h-72l90 155h91zM259 510c115 0 207 -61 207 -190v-320h-78l-5 71c-54 -48 -120 -81 -185 -81c-89 0 -153 64 -153 153s68 168 243 139l91 -15v59c0 76 -56 109 -124 109c-59 0 -104 -24 -134 -69l-61 54c38 55 104 90 199 90zM135 147
c0 -47 33 -78 83 -78c58 0 114 33 161 76v57l-82 14c-126 23 -162 -20 -162 -69z" />
    <glyph glyph-name="acircumflex" unicode="&#xe2;" horiz-adv-x="537" 
d="M271 707l-77 -128h-72l102 171h94l102 -171h-72zM259 510c115 0 207 -61 207 -190v-320h-78l-5 71c-54 -48 -120 -81 -185 -81c-89 0 -153 64 -153 153s68 168 243 139l91 -15v59c0 76 -56 109 -124 109c-59 0 -104 -24 -134 -69l-61 54c38 55 104 90 199 90zM135 147
c0 -47 33 -78 83 -78c58 0 114 33 161 76v57l-82 14c-126 23 -162 -20 -162 -69z" />
    <glyph glyph-name="atilde" unicode="&#xe3;" horiz-adv-x="537" 
d="M163 595h-56c-11 76 32 129 94 129c41 0 71 -21 93 -55c12 -20 25 -29 45 -29c31 0 48 30 40 75h56c11 -74 -30 -129 -94 -129c-38 0 -68 17 -93 54c-13 20 -26 29 -45 29c-31 0 -48 -30 -40 -74zM259 510c115 0 207 -61 207 -190v-320h-78l-5 71
c-54 -48 -120 -81 -185 -81c-89 0 -153 64 -153 153s68 168 243 139l91 -15v59c0 76 -56 109 -124 109c-59 0 -104 -24 -134 -69l-61 54c38 55 104 90 199 90zM135 147c0 -47 33 -78 83 -78c58 0 114 33 161 76v57l-82 14c-126 23 -162 -20 -162 -69z" />
    <glyph glyph-name="adieresis" unicode="&#xe4;" horiz-adv-x="537" 
d="M178 593c-32 0 -59 25 -59 57c0 33 27 59 59 59s58 -26 58 -59c0 -32 -26 -57 -58 -57zM365 593c-31 0 -58 25 -58 57c0 33 27 59 58 59c32 0 58 -26 58 -59c0 -32 -26 -57 -58 -57zM259 510c115 0 207 -61 207 -190v-320h-78l-5 71c-54 -48 -120 -81 -185 -81
c-89 0 -153 64 -153 153s68 168 243 139l91 -15v59c0 76 -56 109 -124 109c-59 0 -104 -24 -134 -69l-61 54c38 55 104 90 199 90zM135 147c0 -47 33 -78 83 -78c58 0 114 33 161 76v57l-82 14c-126 23 -162 -20 -162 -69z" />
    <glyph glyph-name="aring" unicode="&#xe5;" horiz-adv-x="537" 
d="M272 559c-57 0 -103 46 -103 102s46 102 103 102c56 0 101 -46 101 -102s-45 -102 -101 -102zM272 723c-34 0 -61 -28 -61 -62c0 -36 27 -62 61 -62s60 26 60 62c0 34 -26 62 -60 62zM259 510c115 0 207 -61 207 -190v-320h-78l-5 71c-54 -48 -120 -81 -185 -81
c-89 0 -153 64 -153 153s68 168 243 139l91 -15v59c0 76 -56 109 -124 109c-59 0 -104 -24 -134 -69l-61 54c38 55 104 90 199 90zM135 147c0 -47 33 -78 83 -78c58 0 114 33 161 76v57l-82 14c-126 23 -162 -20 -162 -69z" />
    <glyph glyph-name="ae" unicode="&#xe6;" horiz-adv-x="863" 
d="M823 250c0 -9 0 -19 -1 -29h-378c9 -93 62 -154 155 -154c60 0 98 21 138 83l62 -43c-41 -74 -109 -117 -203 -117c-88 0 -156 39 -196 103c-60 -62 -134 -103 -207 -103c-89 0 -153 64 -153 153s68 168 243 139l76 -12c1 27 6 53 13 76c-9 62 -61 89 -122 89
c-59 0 -104 -24 -134 -69l-61 54c38 55 103 90 199 90c85 0 145 -25 171 -72c41 45 99 72 171 72c143 0 227 -108 227 -260zM598 434c-87 0 -139 -57 -152 -144h297c-10 87 -60 144 -145 144zM213 69c57 0 112 31 161 78c-6 18 -10 37 -13 57l-69 12
c-126 23 -162 -20 -162 -69c0 -47 33 -78 83 -78z" />
    <glyph glyph-name="ccedilla" unicode="&#xe7;" horiz-adv-x="445" 
d="M285 435c-99 0 -158 -80 -158 -185s59 -185 158 -185c48 0 92 22 120 54v-88c-34 -28 -79 -39 -117 -41l-28 -57c70 14 125 -27 125 -91c0 -56 -45 -102 -102 -102c-45 0 -96 28 -116 63l42 18c15 -20 47 -36 74 -36c32 0 56 25 56 57c0 47 -44 68 -100 46l-36 24l40 80
c-127 15 -203 120 -203 258c0 149 89 260 236 260c41 0 90 -10 129 -40v-89c-29 32 -73 54 -120 54z" />
    <glyph glyph-name="egrave" unicode="&#xe8;" horiz-adv-x="545" 
d="M311 598h-71l-110 155h91zM505 250c0 -9 0 -19 -1 -29h-378c9 -92 62 -154 155 -154c60 0 98 21 138 83l62 -43c-41 -74 -109 -117 -203 -117c-148 0 -238 110 -238 259s91 261 238 261c143 0 227 -108 227 -260zM280 434c-87 0 -139 -58 -152 -144h297
c-9 88 -60 144 -145 144z" />
    <glyph glyph-name="eacute" unicode="&#xe9;" horiz-adv-x="545" 
d="M426 753l-109 -155h-72l90 155h91zM505 250c0 -9 0 -19 -1 -29h-378c9 -92 62 -154 155 -154c60 0 98 21 138 83l62 -43c-41 -74 -109 -117 -203 -117c-148 0 -238 110 -238 259s91 261 238 261c143 0 227 -108 227 -260zM280 434c-87 0 -139 -58 -152 -144h297
c-9 88 -60 144 -145 144z" />
    <glyph glyph-name="ecircumflex" unicode="&#xea;" horiz-adv-x="545" 
d="M279 710l-77 -128h-72l102 171h94l102 -171h-72zM505 250c0 -9 0 -19 -1 -29h-378c9 -92 62 -154 155 -154c60 0 98 21 138 83l62 -43c-41 -74 -109 -117 -203 -117c-148 0 -238 110 -238 259s91 261 238 261c143 0 227 -108 227 -260zM280 434c-87 0 -139 -58 -152 -144
h297c-9 88 -60 144 -145 144z" />
    <glyph glyph-name="edieresis" unicode="&#xeb;" horiz-adv-x="545" 
d="M186 596c-32 0 -59 25 -59 57c0 33 27 59 59 59s58 -26 58 -59c0 -32 -26 -57 -58 -57zM373 596c-31 0 -58 25 -58 57c0 33 27 59 58 59c32 0 58 -26 58 -59c0 -32 -26 -57 -58 -57zM505 250c0 -9 0 -19 -1 -29h-378c9 -92 62 -154 155 -154c60 0 98 21 138 83l62 -43
c-41 -74 -109 -117 -203 -117c-148 0 -238 110 -238 259s91 261 238 261c143 0 227 -108 227 -260zM280 434c-87 0 -139 -58 -152 -144h297c-9 88 -60 144 -145 144z" />
    <glyph glyph-name="igrave" unicode="&#xec;" horiz-adv-x="238" 
d="M80 595l-110 155h91l90 -155h-71zM75 0v500h88v-500h-88z" />
    <glyph glyph-name="iacute" unicode="&#xed;" horiz-adv-x="238" 
d="M85 595l90 155h91l-109 -155h-72zM75 0v500h88v-500h-88z" />
    <glyph glyph-name="icircumflex" unicode="&#xee;" horiz-adv-x="238" 
d="M-30 579l102 171h94l102 -171h-72l-77 128l-77 -128h-72zM75 0v500h88v-500h-88z" />
    <glyph glyph-name="idieresis" unicode="&#xef;" horiz-adv-x="238" 
d="M26 593c-32 0 -59 25 -59 57c0 33 27 59 59 59s58 -26 58 -59c0 -32 -26 -57 -58 -57zM213 593c-31 0 -58 25 -58 57c0 33 27 59 58 59c32 0 58 -26 58 -59c0 -32 -26 -57 -58 -57zM75 0v500h88v-500h-88z" />
    <glyph glyph-name="eth" unicode="&#xf0;" horiz-adv-x="620" 
d="M395 684c111 -90 184 -249 184 -434c0 -144 -120 -260 -269 -260c-150 0 -270 116 -270 260c0 145 120 260 270 260c54 0 104 -15 146 -41c-26 69 -63 120 -108 155l-52 -66l-31 24l51 65c-47 29 -100 42 -153 43l17 72c66 0 129 -20 183 -56l45 57l31 -23zM310 69
c100 0 180 80 180 181s-80 182 -180 182c-101 0 -182 -81 -182 -182s81 -181 182 -181z" />
    <glyph glyph-name="ntilde" unicode="&#xf1;" horiz-adv-x="588" 
d="M188 595h-56c-11 76 32 129 94 129c41 0 71 -21 93 -55c12 -20 25 -29 45 -29c31 0 48 30 40 75h56c11 -74 -30 -129 -94 -129c-38 0 -68 17 -93 54c-13 20 -26 29 -45 29c-31 0 -48 -30 -40 -74zM322 510c112 0 195 -81 195 -194v-316h-89v306c0 72 -56 126 -130 126
c-75 0 -135 -58 -135 -130v-302h-88v500h81l4 -66c38 46 95 76 162 76z" />
    <glyph glyph-name="ograve" unicode="&#xf2;" horiz-adv-x="567" 
d="M244 595l-110 155h91l90 -155h-71zM284 -10c-146 0 -244 116 -244 260c0 145 98 260 244 260c145 0 244 -115 244 -260c0 -144 -99 -260 -244 -260zM284 69c96 0 157 80 157 181s-61 182 -157 182c-98 0 -157 -81 -157 -182s59 -181 157 -181z" />
    <glyph glyph-name="oacute" unicode="&#xf3;" horiz-adv-x="567" 
d="M249 595l90 155h91l-109 -155h-72zM284 -10c-146 0 -244 116 -244 260c0 145 98 260 244 260c145 0 244 -115 244 -260c0 -144 -99 -260 -244 -260zM284 69c96 0 157 80 157 181s-61 182 -157 182c-98 0 -157 -81 -157 -182s59 -181 157 -181z" />
    <glyph glyph-name="ocircumflex" unicode="&#xf4;" horiz-adv-x="567" 
d="M134 579l102 171h94l102 -171h-72l-77 128l-77 -128h-72zM284 -10c-146 0 -244 116 -244 260c0 145 98 260 244 260c145 0 244 -115 244 -260c0 -144 -99 -260 -244 -260zM284 69c96 0 157 80 157 181s-61 182 -157 182c-98 0 -157 -81 -157 -182s59 -181 157 -181z" />
    <glyph glyph-name="otilde" unicode="&#xf5;" horiz-adv-x="567" 
d="M354 586c-38 0 -68 17 -93 54c-13 20 -26 29 -45 29c-31 0 -48 -30 -40 -74h-56c-11 76 32 129 94 129c41 0 71 -21 93 -55c12 -20 25 -29 45 -29c31 0 48 30 40 75h56c11 -74 -30 -129 -94 -129zM284 -10c-146 0 -244 116 -244 260c0 145 98 260 244 260
c145 0 244 -115 244 -260c0 -144 -99 -260 -244 -260zM284 69c96 0 157 80 157 181s-61 182 -157 182c-98 0 -157 -81 -157 -182s59 -181 157 -181z" />
    <glyph glyph-name="odieresis" unicode="&#xf6;" horiz-adv-x="567" 
d="M190 593c-32 0 -59 25 -59 57c0 33 27 59 59 59s58 -26 58 -59c0 -32 -26 -57 -58 -57zM377 593c-31 0 -58 25 -58 57c0 33 27 59 58 59c32 0 58 -26 58 -59c0 -32 -26 -57 -58 -57zM284 -10c-146 0 -244 116 -244 260c0 145 98 260 244 260c145 0 244 -115 244 -260
c0 -144 -99 -260 -244 -260zM284 69c96 0 157 80 157 181s-61 182 -157 182c-98 0 -157 -81 -157 -182s59 -181 157 -181z" />
    <glyph glyph-name="divide" unicode="&#xf7;" horiz-adv-x="721" 
d="M360 392c-28 0 -53 23 -53 53c0 29 25 53 53 53c29 0 54 -24 54 -53c0 -30 -25 -53 -54 -53zM60 251v48h600v-48h-600zM360 52c-28 0 -53 23 -53 53c0 29 25 53 53 53c29 0 54 -24 54 -53c0 -30 -25 -53 -54 -53z" />
    <glyph glyph-name="oslash" unicode="&#xf8;" horiz-adv-x="567" 
d="M443 451c53 -47 85 -119 85 -201c0 -144 -99 -260 -244 -260c-49 0 -92 13 -128 35l-37 -56h-47l53 79c-54 47 -85 120 -85 202c0 145 98 260 244 260c48 0 92 -13 128 -36l38 57h46zM127 250c0 -52 16 -99 45 -132l195 289c-23 16 -51 25 -83 25
c-98 0 -157 -81 -157 -182zM284 69c96 0 157 80 157 181c0 52 -17 99 -45 132l-195 -290c23 -15 51 -23 83 -23z" />
    <glyph glyph-name="ugrave" unicode="&#xf9;" horiz-adv-x="594" 
d="M329 595h-71l-110 155h91zM430 500h89v-500h-81l-5 67c-37 -47 -94 -77 -159 -77c-111 0 -197 89 -197 199v311h88v-302c0 -72 58 -129 131 -129c74 0 134 57 134 129v302z" />
    <glyph glyph-name="uacute" unicode="&#xfa;" horiz-adv-x="594" 
d="M444 750l-109 -155h-72l90 155h91zM430 500h89v-500h-81l-5 67c-37 -47 -94 -77 -159 -77c-111 0 -197 89 -197 199v311h88v-302c0 -72 58 -129 131 -129c74 0 134 57 134 129v302z" />
    <glyph glyph-name="ucircumflex" unicode="&#xfb;" horiz-adv-x="594" 
d="M297 707l-77 -128h-72l102 171h94l102 -171h-72zM430 500h89v-500h-81l-5 67c-37 -47 -94 -77 -159 -77c-111 0 -197 89 -197 199v311h88v-302c0 -72 58 -129 131 -129c74 0 134 57 134 129v302z" />
    <glyph glyph-name="udieresis" unicode="&#xfc;" horiz-adv-x="594" 
d="M204 593c-32 0 -59 25 -59 57c0 33 27 59 59 59s58 -26 58 -59c0 -32 -26 -57 -58 -57zM391 593c-31 0 -58 25 -58 57c0 33 27 59 58 59c32 0 58 -26 58 -59c0 -32 -26 -57 -58 -57zM430 500h89v-500h-81l-5 67c-37 -47 -94 -77 -159 -77c-111 0 -197 89 -197 199v311h88
v-302c0 -72 58 -129 131 -129c74 0 134 57 134 129v302z" />
    <glyph glyph-name="yacute" unicode="&#xfd;" horiz-adv-x="594" 
d="M444 750l-109 -155h-72l90 155h91zM519 500v-513c0 -137 -80 -243 -241 -243c-73 0 -128 18 -174 48v96c44 -38 103 -65 181 -65c99 0 145 63 145 164v77c-37 -46 -93 -74 -156 -74c-111 0 -197 89 -197 199v311h88v-302c0 -72 58 -129 131 -129c74 0 134 57 134 129v302
h89z" />
    <glyph glyph-name="thorn" unicode="&#xfe;" horiz-adv-x="649" 
d="M357 510c141 0 252 -115 252 -260c0 -144 -111 -260 -252 -260c-82 0 -151 40 -194 101v-340h-88v999h88v-341c43 61 112 101 194 101zM345 69c101 0 181 80 181 181s-80 182 -181 182c-100 0 -181 -81 -181 -182s81 -181 181 -181z" />
    <glyph glyph-name="ydieresis" unicode="&#xff;" horiz-adv-x="594" 
d="M204 593c-32 0 -59 25 -59 57c0 33 27 59 59 59s58 -26 58 -59c0 -32 -26 -57 -58 -57zM391 593c-31 0 -58 25 -58 57c0 33 27 59 58 59c32 0 58 -26 58 -59c0 -32 -26 -57 -58 -57zM519 500v-513c0 -137 -80 -243 -241 -243c-73 0 -128 18 -174 48v96
c44 -38 103 -65 181 -65c99 0 145 63 145 164v77c-37 -46 -93 -74 -156 -74c-111 0 -197 89 -197 199v311h88v-302c0 -72 58 -129 131 -129c74 0 134 57 134 129v302h89z" />
    <glyph glyph-name="Amacron" unicode="&#x100;" horiz-adv-x="743" 
d="M526 910v-59h-310v59h310zM624 0l-61 157h-384l-61 -157h-99l301 750h102l301 -750h-99zM208 234h326l-163 422z" />
    <glyph glyph-name="amacron" unicode="&#x101;" horiz-adv-x="537" 
d="M426 660v-59h-310v59h310zM259 510c115 0 207 -61 207 -190v-320h-78l-5 71c-54 -48 -120 -81 -185 -81c-89 0 -153 64 -153 153s68 168 243 139l91 -15v59c0 76 -56 109 -124 109c-59 0 -104 -24 -134 -69l-61 54c38 55 104 90 199 90zM135 147c0 -47 33 -78 83 -78
c58 0 114 33 161 76v57l-82 14c-126 23 -162 -20 -162 -69z" />
    <glyph glyph-name="Abreve" unicode="&#x102;" horiz-adv-x="743" 
d="M371 815c-96 0 -167 59 -167 156h55c0 -55 47 -101 112 -101c66 0 113 46 113 101h54c0 -97 -70 -156 -167 -156zM624 0l-61 157h-384l-61 -157h-99l301 750h102l301 -750h-99zM208 234h326l-163 422z" />
    <glyph glyph-name="abreve" unicode="&#x103;" horiz-adv-x="537" 
d="M271 565c-96 0 -167 59 -167 156h55c0 -55 47 -101 112 -101c66 0 113 46 113 101h54c0 -97 -70 -156 -167 -156zM259 510c115 0 207 -61 207 -190v-320h-78l-5 71c-54 -48 -120 -81 -185 -81c-89 0 -153 64 -153 153s68 168 243 139l91 -15v59c0 76 -56 109 -124 109
c-59 0 -104 -24 -134 -69l-61 54c38 55 104 90 199 90zM135 147c0 -47 33 -78 83 -78c58 0 114 33 161 76v57l-82 14c-126 23 -162 -20 -162 -69z" />
    <glyph glyph-name="Aogonek" unicode="&#x104;" horiz-adv-x="743" 
d="M752 -165l29 -43c-37 -37 -86 -54 -137 -51c-67 3 -114 40 -114 105c0 64 48 116 118 154h-24l-61 157h-384l-61 -157h-99l301 750h102l301 -750c-62 -12 -131 -78 -131 -147c0 -37 23 -65 66 -65c37 0 72 18 94 47zM208 234h326l-163 422z" />
    <glyph glyph-name="aogonek" unicode="&#x105;" horiz-adv-x="537" 
d="M495 -165l29 -43c-37 -37 -86 -54 -137 -51c-67 3 -114 40 -114 105c0 64 48 116 118 154h-3l-5 71c-54 -48 -120 -81 -185 -81c-89 0 -153 64 -153 153s68 168 243 139l91 -15v59c0 76 -56 109 -124 109c-59 0 -104 -24 -134 -69l-61 54c38 55 104 90 199 90
c115 0 207 -61 207 -190v-320c-62 -12 -131 -78 -131 -147c0 -37 23 -65 66 -65c37 0 72 18 94 47zM135 147c0 -47 33 -78 83 -78c58 0 114 33 161 76v57l-82 14c-126 23 -162 -20 -162 -69z" />
    <glyph glyph-name="Cacute" unicode="&#x106;" horiz-adv-x="668" 
d="M383 845l90 155h91l-109 -155h-72zM417 -10c-213 0 -366 172 -366 385s153 385 366 385c76 0 147 -26 204 -70v-110c-57 62 -127 93 -204 93c-167 0 -280 -131 -280 -298s113 -298 280 -298c78 0 148 31 204 93v-110c-57 -44 -128 -70 -204 -70z" />
    <glyph glyph-name="cacute" unicode="&#x107;" horiz-adv-x="445" 
d="M235 595l90 155h91l-109 -155h-72zM276 -10c-147 0 -236 111 -236 260s89 260 236 260c41 0 90 -10 129 -40v-89c-29 32 -73 54 -120 54c-99 0 -158 -80 -158 -185s59 -185 158 -185c48 0 92 22 120 54v-88c-38 -30 -88 -41 -129 -41z" />
    <glyph glyph-name="Cdotaccent" unicode="&#x10a;" horiz-adv-x="668" 
d="M417 843c-32 0 -59 25 -59 57c0 33 27 59 59 59s58 -26 58 -59c0 -32 -26 -57 -58 -57zM417 -10c-213 0 -366 172 -366 385s153 385 366 385c76 0 147 -26 204 -70v-110c-57 62 -127 93 -204 93c-167 0 -280 -131 -280 -298s113 -298 280 -298c78 0 148 31 204 93v-110
c-57 -44 -128 -70 -204 -70z" />
    <glyph glyph-name="cdotaccent" unicode="&#x10b;" horiz-adv-x="445" 
d="M270 593c-32 0 -59 25 -59 57c0 33 27 59 59 59s58 -26 58 -59c0 -32 -26 -57 -58 -57zM276 -10c-147 0 -236 111 -236 260s89 260 236 260c41 0 90 -10 129 -40v-89c-29 32 -73 54 -120 54c-99 0 -158 -80 -158 -185s59 -185 158 -185c48 0 92 22 120 54v-88
c-38 -30 -88 -41 -129 -41z" />
    <glyph glyph-name="Ccaron" unicode="&#x10c;" horiz-adv-x="668" 
d="M370 829l-102 171h70l79 -126l80 126h69l-102 -171h-94zM417 -10c-213 0 -366 172 -366 385s153 385 366 385c76 0 147 -26 204 -70v-110c-57 62 -127 93 -204 93c-167 0 -280 -131 -280 -298s113 -298 280 -298c78 0 148 31 204 93v-110c-57 -44 -128 -70 -204 -70z" />
    <glyph glyph-name="ccaron" unicode="&#x10d;" horiz-adv-x="445" 
d="M222 579l-102 171h70l79 -126l80 126h69l-102 -171h-94zM276 -10c-147 0 -236 111 -236 260s89 260 236 260c41 0 90 -10 129 -40v-89c-29 32 -73 54 -120 54c-99 0 -158 -80 -158 -185s59 -185 158 -185c48 0 92 22 120 54v-88c-38 -30 -88 -41 -129 -41z" />
    <glyph glyph-name="Dcaron" unicode="&#x10e;" horiz-adv-x="711" 
d="M237 829l-102 171h70l79 -126l80 126h69l-102 -171h-94zM75 0v750h210c207 0 375 -168 375 -375s-168 -375 -375 -375h-210zM166 81h119c158 0 284 130 284 294s-126 294 -284 294h-119v-588z" />
    <glyph glyph-name="dcaron" unicode="&#x10f;" horiz-adv-x="768" 
d="M703 755c46 0 67 -49 67 -105c0 -84 -43 -187 -119 -188v43c39 2 64 69 64 107c0 16 -4 26 -13 26c-32 0 -58 26 -58 59s26 58 59 58zM434 432v318h86v-750h-79l-4 72c-40 -51 -97 -82 -167 -82c-141 0 -230 115 -230 260s89 260 230 260c68 0 125 -30 164 -78zM284 69
c72 0 131 53 150 127v108c-19 74 -78 128 -150 128c-98 0 -157 -81 -157 -182s59 -181 157 -181z" />
    <glyph glyph-name="Dcroat" unicode="&#x110;" horiz-adv-x="711" 
d="M285 750c207 0 375 -168 375 -375s-168 -375 -375 -375h-210v344h-77v63h77v343h210zM285 81c158 0 284 130 284 294s-126 294 -284 294h-119v-262h131v-63h-131v-263h119z" />
    <glyph glyph-name="dcroat" unicode="&#x111;" horiz-adv-x="595" 
d="M594 651v-63h-74v-588h-79l-4 72c-40 -51 -97 -82 -167 -82c-141 0 -230 115 -230 260s89 260 230 260c68 0 125 -30 164 -78v156h-139v63h139v99h86v-99h74zM284 69c72 0 131 53 150 127v108c-19 74 -78 128 -150 128c-98 0 -157 -81 -157 -182s59 -181 157 -181z" />
    <glyph glyph-name="Emacron" unicode="&#x112;" horiz-adv-x="542" 
d="M437 910v-59h-310v59h310zM490 669h-324v-253h282v-82h-282v-253h324v-81h-415v750h415v-81z" />
    <glyph glyph-name="emacron" unicode="&#x113;" horiz-adv-x="545" 
d="M434 663v-59h-310v59h310zM505 250c0 -9 0 -19 -1 -29h-378c9 -92 62 -154 155 -154c60 0 98 21 138 83l62 -43c-41 -74 -109 -117 -203 -117c-148 0 -238 110 -238 259s91 261 238 261c143 0 227 -108 227 -260zM280 434c-87 0 -139 -58 -152 -144h297
c-9 88 -60 144 -145 144z" />
    <glyph glyph-name="Edotaccent" unicode="&#x116;" horiz-adv-x="542" 
d="M283 843c-32 0 -59 25 -59 57c0 33 27 59 59 59s58 -26 58 -59c0 -32 -26 -57 -58 -57zM490 669h-324v-253h282v-82h-282v-253h324v-81h-415v750h415v-81z" />
    <glyph glyph-name="edotaccent" unicode="&#x117;" horiz-adv-x="545" 
d="M279 596c-32 0 -59 25 -59 57c0 33 27 59 59 59s58 -26 58 -59c0 -32 -26 -57 -58 -57zM505 250c0 -9 0 -19 -1 -29h-378c9 -92 62 -154 155 -154c60 0 98 21 138 83l62 -43c-41 -74 -109 -117 -203 -117c-148 0 -238 110 -238 259s91 261 238 261
c143 0 227 -108 227 -260zM280 434c-87 0 -139 -58 -152 -144h297c-9 88 -60 144 -145 144z" />
    <glyph glyph-name="Eogonek" unicode="&#x118;" horiz-adv-x="542" 
d="M519 -165l29 -43c-37 -37 -86 -54 -137 -51c-67 3 -114 40 -114 105c0 64 48 116 118 154h-340v750h415v-81h-324v-253h282v-82h-282v-253h324v-81c-62 -12 -131 -78 -131 -147c0 -37 23 -65 66 -65c37 0 72 18 94 47z" />
    <glyph glyph-name="eogonek" unicode="&#x119;" horiz-adv-x="545" 
d="M381 -145c37 0 72 18 94 47l29 -43c-37 -37 -86 -54 -137 -51c-67 3 -114 40 -114 105c0 28 9 54 25 77c-148 0 -238 110 -238 259s91 261 238 261c143 0 227 -108 227 -260c0 -9 0 -19 -1 -29h-378c9 -92 62 -154 155 -154c60 0 98 21 138 83l62 -43
c-31 -56 -77 -94 -138 -109c-17 -24 -28 -51 -28 -78c0 -37 23 -65 66 -65zM280 434c-87 0 -139 -58 -152 -144h297c-9 88 -60 144 -145 144z" />
    <glyph glyph-name="Ecaron" unicode="&#x11a;" horiz-adv-x="542" 
d="M329 829h-94l-102 171h70l79 -126l80 126h69zM490 669h-324v-253h282v-82h-282v-253h324v-81h-415v750h415v-81z" />
    <glyph glyph-name="ecaron" unicode="&#x11b;" horiz-adv-x="545" 
d="M326 582h-94l-102 171h70l79 -126l80 126h69zM505 250c0 -9 0 -19 -1 -29h-378c9 -92 62 -154 155 -154c60 0 98 21 138 83l62 -43c-41 -74 -109 -117 -203 -117c-148 0 -238 110 -238 259s91 261 238 261c143 0 227 -108 227 -260zM280 434c-87 0 -139 -58 -152 -144
h297c-9 88 -60 144 -145 144z" />
    <glyph glyph-name="Gbreve" unicode="&#x11e;" horiz-adv-x="740" 
d="M454 815c-96 0 -167 59 -167 156h55c0 -55 47 -101 112 -101c66 0 113 46 113 101h54c0 -97 -70 -156 -167 -156zM452 673c-163 0 -296 -117 -296 -301s133 -301 296 -301c46 0 91 11 132 31v217h-174v82h255v-353c-62 -39 -136 -64 -214 -64c-209 0 -380 156 -380 388
c0 233 171 388 378 388c79 0 154 -25 216 -64v-114c-52 57 -132 91 -213 91z" />
    <glyph glyph-name="gbreve" unicode="&#x11f;" horiz-adv-x="596" 
d="M279 565c-96 0 -167 59 -167 156h55c0 -55 47 -101 112 -101c66 0 113 46 113 101h54c0 -97 -70 -156 -167 -156zM441 500h80v-494c0 -146 -91 -256 -236 -256c-63 0 -112 18 -154 47v96c40 -38 91 -65 160 -65c85 0 143 69 143 178v63c-40 -49 -97 -79 -164 -79
c-141 0 -230 115 -230 260c0 146 89 260 230 260c69 0 127 -32 167 -83zM284 69c70 0 130 54 150 128v106c-20 75 -80 129 -150 129c-98 0 -157 -81 -157 -182c0 -100 59 -181 157 -181z" />
    <glyph glyph-name="Gdotaccent" unicode="&#x120;" horiz-adv-x="740" 
d="M454 843c-32 0 -59 25 -59 57c0 33 27 59 59 59s58 -26 58 -59c0 -32 -26 -57 -58 -57zM452 673c-163 0 -296 -117 -296 -301s133 -301 296 -301c46 0 91 11 132 31v217h-174v82h255v-353c-62 -39 -136 -64 -214 -64c-209 0 -380 156 -380 388c0 233 171 388 378 388
c79 0 154 -25 216 -64v-114c-52 57 -132 91 -213 91z" />
    <glyph glyph-name="gdotaccent" unicode="&#x121;" horiz-adv-x="596" 
d="M280 593c-32 0 -59 25 -59 57c0 33 27 59 59 59s58 -26 58 -59c0 -32 -26 -57 -58 -57zM441 500h80v-494c0 -146 -91 -256 -236 -256c-63 0 -112 18 -154 47v96c40 -38 91 -65 160 -65c85 0 143 69 143 178v63c-40 -49 -97 -79 -164 -79c-141 0 -230 115 -230 260
c0 146 89 260 230 260c69 0 127 -32 167 -83zM284 69c70 0 130 54 150 128v106c-20 75 -80 129 -150 129c-98 0 -157 -81 -157 -182c0 -100 59 -181 157 -181z" />
    <glyph glyph-name="Gcommaaccent" unicode="&#x122;" horiz-adv-x="740" 
d="M452 673c-163 0 -296 -117 -296 -301s133 -301 296 -301c46 0 91 11 132 31v217h-174v82h255v-353c-62 -39 -136 -64 -214 -64c-209 0 -380 156 -380 388c0 233 171 388 378 388c79 0 154 -25 216 -64v-114c-52 57 -132 91 -213 91zM448 -40c34 0 59 -27 59 -64
c0 -87 -38 -172 -110 -169v34c53 2 63 82 50 82c-33 0 -57 24 -57 58s24 59 58 59z" />
    <glyph glyph-name="gcommaaccent" unicode="&#x123;" horiz-adv-x="596" 
d="M280 578c-33 0 -59 28 -59 64c-1 87 65 167 110 169v-33c-45 -17 -63 -83 -51 -83c33 0 58 -25 58 -57c0 -33 -25 -60 -58 -60zM441 500h80v-494c0 -146 -91 -256 -236 -256c-63 0 -112 18 -154 47v96c40 -38 91 -65 160 -65c85 0 143 69 143 178v63
c-40 -49 -97 -79 -164 -79c-141 0 -230 115 -230 260c0 146 89 260 230 260c69 0 127 -32 167 -83zM284 69c70 0 130 54 150 128v106c-20 75 -80 129 -150 129c-98 0 -157 -81 -157 -182c0 -100 59 -181 157 -181z" />
    <glyph glyph-name="Hbar" unicode="&#x126;" horiz-adv-x="731" 
d="M724 606v-40h-68v-566h-91v334h-399v-334h-91v566h-69v40h69v144h91v-144h399v144h91v-144h68zM565 416v150h-399v-150h399z" />
    <glyph glyph-name="hbar" unicode="&#x127;" horiz-adv-x="588" 
d="M322 510c112 0 195 -81 195 -194v-316h-89v306c0 72 -56 126 -130 126c-75 0 -135 -58 -135 -130v-302h-88v592h-56v63h56v95h88v-95h155v-63h-155v-155c38 45 94 73 159 73z" />
    <glyph glyph-name="Itilde" unicode="&#x128;" horiz-adv-x="241" 
d="M190 836c-38 0 -68 17 -93 54c-13 20 -26 29 -45 29c-31 0 -48 -30 -40 -74h-56c-11 76 32 129 94 129c41 0 71 -21 93 -55c12 -20 25 -29 45 -29c31 0 48 30 40 75h56c11 -74 -30 -129 -94 -129zM75 0v750h91v-750h-91z" />
    <glyph glyph-name="itilde" unicode="&#x129;" horiz-adv-x="238" 
d="M189 586c-38 0 -68 17 -93 54c-13 20 -26 29 -45 29c-31 0 -48 -30 -40 -74h-56c-11 76 32 129 94 129c41 0 71 -21 93 -55c12 -20 25 -29 45 -29c31 0 48 30 40 75h56c11 -74 -30 -129 -94 -129zM75 0v500h88v-500h-88z" />
    <glyph glyph-name="Imacron" unicode="&#x12a;" horiz-adv-x="241" 
d="M-35 851v59h310v-59h-310zM75 0v750h91v-750h-91z" />
    <glyph glyph-name="imacron" unicode="&#x12b;" horiz-adv-x="238" 
d="M-36 601v59h310v-59h-310zM75 0v500h88v-500h-88z" />
    <glyph glyph-name="Iogonek" unicode="&#x12e;" horiz-adv-x="241" 
d="M186 -165l29 -43c-37 -37 -86 -54 -137 -51c-67 3 -114 40 -114 105c0 64 48 116 118 154h-7v750h91v-750h-9c-62 -12 -131 -78 -131 -147c0 -37 23 -65 66 -65c37 0 72 18 94 47z" />
    <glyph glyph-name="iogonek" unicode="&#x12f;" horiz-adv-x="238" 
d="M120 593c-32 0 -59 25 -59 57c0 33 27 59 59 59s58 -26 58 -59c0 -32 -26 -57 -58 -57zM185 -165l29 -43c-37 -37 -86 -54 -137 -51c-67 3 -114 40 -114 105c0 64 48 116 118 154h-6v500h88v-500h-7c-62 -12 -131 -78 -131 -147c0 -37 23 -65 66 -65c37 0 72 18 94 47z
" />
    <glyph glyph-name="Idotaccent" unicode="&#x130;" horiz-adv-x="241" 
d="M120 843c-32 0 -59 25 -59 57c0 33 27 59 59 59s58 -26 58 -59c0 -32 -26 -57 -58 -57zM75 0v750h91v-750h-91z" />
    <glyph glyph-name="dotlessi" unicode="&#x131;" horiz-adv-x="238" 
d="M75 0v500h88v-500h-88z" />
    <glyph glyph-name="IJ" unicode="&#x132;" horiz-adv-x="620" 
d="M75 0v750h91v-750h-91zM365 -10c-30 0 -57 4 -74 10v93c21 -7 44 -12 74 -12c46 0 84 38 84 84v585h91v-585c0 -97 -79 -175 -175 -175z" />
    <glyph glyph-name="ij" unicode="&#x133;" horiz-adv-x="538" 
d="M422 593c-32 0 -59 25 -59 57c0 33 27 59 59 59s58 -26 58 -59c0 -32 -26 -57 -58 -57zM137 593c-32 0 -59 25 -59 57c0 33 27 59 59 59c31 0 58 -26 58 -59c0 -32 -27 -57 -58 -57zM92 0v500h88v-500h-88zM313 -260c-23 0 -52 7 -65 16v77c14 -11 38 -19 55 -19
c42 0 75 34 75 79v607h88v-612c0 -83 -67 -148 -153 -148z" />
    <glyph glyph-name="Kcommaaccent" unicode="&#x136;" horiz-adv-x="624" 
d="M260 413l335 -323v-120l-429 415v-385h-91v750h91v-315l308 315h118zM316 -40c34 0 59 -27 59 -64c0 -87 -38 -172 -110 -169v34c53 2 63 82 50 82c-33 0 -57 24 -57 58s24 59 58 59z" />
    <glyph glyph-name="kcommaaccent" unicode="&#x137;" horiz-adv-x="507" 
d="M248 280l247 -222v-108l-332 298v-248h-88v750h88v-445l212 195h112zM257 -40c34 0 59 -27 59 -64c0 -87 -38 -172 -110 -169v34c53 2 63 82 50 82c-33 0 -57 24 -57 58s24 59 58 59z" />
    <glyph glyph-name="Lacute" unicode="&#x139;" horiz-adv-x="475" 
d="M86 845l90 155h91l-109 -155h-72zM75 0v750h91v-669h275v-81h-366z" />
    <glyph glyph-name="lacute" unicode="&#x13a;" horiz-adv-x="327" 
d="M84 845l90 155h91l-109 -155h-72zM232 -10c-94 0 -153 61 -153 150v610h88l1 -610c0 -49 25 -74 66 -74c22 0 39 7 54 23l49 -60c-24 -25 -60 -39 -105 -39z" />
    <glyph glyph-name="Lcommaaccent" unicode="&#x13b;" horiz-adv-x="475" 
d="M75 0v750h91v-669h275v-81h-366zM208 -273v34c53 2 63 82 50 82c-33 0 -57 24 -57 58s24 59 58 59s59 -27 59 -64c0 -87 -38 -172 -110 -169z" />
    <glyph glyph-name="lcommaaccent" unicode="&#x13c;" horiz-adv-x="327" 
d="M232 -10c-94 0 -153 61 -153 150v610h88l1 -610c0 -49 25 -74 66 -74c22 0 39 7 54 23l49 -60c-24 -25 -60 -39 -105 -39zM162 -273v34c53 2 63 82 50 82c-33 0 -57 24 -57 58s24 59 58 59s59 -27 59 -64c0 -87 -38 -172 -110 -169z" />
    <glyph glyph-name="Lcaron" unicode="&#x13d;" horiz-adv-x="490" 
d="M336 462v43c39 2 64 69 64 107c0 16 -4 26 -13 26c-32 0 -58 26 -58 59s26 58 59 58c46 0 67 -49 67 -105c0 -84 -43 -187 -119 -188zM75 0v750h91v-669h275v-81h-366z" />
    <glyph glyph-name="lcaron" unicode="&#x13e;" horiz-adv-x="350" 
d="M241 462v43c38 2 63 69 63 107c0 16 -3 26 -13 26c-32 0 -57 26 -57 59s25 58 58 58c46 0 68 -49 68 -105c0 -84 -44 -187 -119 -188zM232 -10c-94 0 -153 61 -153 150v610h88l1 -610c0 -49 25 -74 66 -74c22 0 39 7 54 23l49 -60c-24 -25 -60 -39 -105 -39z" />
    <glyph glyph-name="ldot" unicode="&#x140;" horiz-adv-x="327" 
d="M232 -10c-94 0 -153 61 -153 150v610h88l1 -610c0 -49 25 -74 66 -74c22 0 39 7 54 23l49 -60c-24 -25 -60 -39 -105 -39zM247 314c-25 0 -47 19 -47 46c0 25 22 47 47 47s47 -22 47 -47c0 -27 -22 -46 -47 -46z" />
    <glyph glyph-name="Lslash" unicode="&#x141;" horiz-adv-x="475" 
d="M166 81h275v-81h-366v293l-50 -52h-66l116 123v386h91v-289l47 50h70l-117 -122v-308z" />
    <glyph glyph-name="lslash" unicode="&#x142;" horiz-adv-x="327" 
d="M288 89l49 -60c-24 -25 -60 -39 -105 -39c-94 0 -153 61 -153 150v147l-56 -58h-66l122 129v392h88v-297l44 46h70l-114 -119l1 -240c0 -49 25 -74 66 -74c22 0 39 7 54 23z" />
    <glyph glyph-name="Nacute" unicode="&#x143;" horiz-adv-x="778" 
d="M534 1000l-109 -155h-72l90 155h91zM613 750h90v-750h-87l-450 603v-603h-91v750h87l451 -604v604z" />
    <glyph glyph-name="nacute" unicode="&#x144;" horiz-adv-x="588" 
d="M443 750l-109 -155h-72l90 155h91zM322 510c112 0 195 -81 195 -194v-316h-89v306c0 72 -56 126 -130 126c-75 0 -135 -58 -135 -130v-302h-88v500h81l4 -66c38 46 95 76 162 76z" />
    <glyph glyph-name="Ncommaaccent" unicode="&#x145;" horiz-adv-x="778" 
d="M613 750h90v-750h-87l-450 603v-603h-91v750h87l451 -604v604zM393 -40c34 0 59 -27 59 -64c0 -87 -38 -172 -110 -169v34c53 2 63 82 50 82c-33 0 -57 24 -57 58s24 59 58 59z" />
    <glyph glyph-name="ncommaaccent" unicode="&#x146;" horiz-adv-x="588" 
d="M322 510c112 0 195 -81 195 -194v-316h-89v306c0 72 -56 126 -130 126c-75 0 -135 -58 -135 -130v-302h-88v500h81l4 -66c38 46 95 76 162 76zM297 -40c34 0 59 -27 59 -64c0 -87 -38 -172 -110 -169v34c53 2 63 82 50 82c-33 0 -57 24 -57 58s24 59 58 59z" />
    <glyph glyph-name="Ncaron" unicode="&#x147;" horiz-adv-x="778" 
d="M434 829h-94l-102 171h70l79 -126l80 126h69zM613 750h90v-750h-87l-450 603v-603h-91v750h87l451 -604v604z" />
    <glyph glyph-name="ncaron" unicode="&#x148;" horiz-adv-x="588" 
d="M343 579h-94l-102 171h70l79 -126l80 126h69zM322 510c112 0 195 -81 195 -194v-316h-89v306c0 72 -56 126 -130 126c-75 0 -135 -58 -135 -130v-302h-88v500h81l4 -66c38 46 95 76 162 76z" />
    <glyph glyph-name="Eng" unicode="&#x14a;" horiz-adv-x="807" 
d="M627 750h89v-824c0 -92 -72 -130 -159 -128v61c37 -2 68 10 68 67v84l-446 589v-599h-89v750h85l452 -598v598z" />
    <glyph glyph-name="eng" unicode="&#x14b;" horiz-adv-x="613" 
d="M336 510c109 0 196 -88 196 -198v-392c0 -90 -72 -129 -159 -128v62c37 -2 70 10 70 66v382c0 72 -57 130 -129 130c-75 0 -135 -58 -135 -130v-302h-89v500h89v-72c36 50 93 82 157 82z" />
    <glyph glyph-name="Omacron" unicode="&#x14c;" horiz-adv-x="834" 
d="M262 851v59h310v-59h-310zM417 -10c-213 0 -366 172 -366 385s153 385 366 385c212 0 366 -172 366 -385s-154 -385 -366 -385zM417 77c167 0 279 131 279 298s-112 298 -279 298c-166 0 -280 -131 -280 -298s114 -298 280 -298z" />
    <glyph glyph-name="omacron" unicode="&#x14d;" horiz-adv-x="567" 
d="M128 601v59h310v-59h-310zM284 -10c-146 0 -244 116 -244 260c0 145 98 260 244 260c145 0 244 -115 244 -260c0 -144 -99 -260 -244 -260zM284 69c96 0 157 80 157 181s-61 182 -157 182c-98 0 -157 -81 -157 -182s59 -181 157 -181z" />
    <glyph glyph-name="Ohungarumlaut" unicode="&#x150;" horiz-adv-x="834" 
d="M299 826l147 174h86l-166 -174h-67zM471 826l146 174h86l-166 -174h-66zM417 -10c-213 0 -366 172 -366 385s153 385 366 385c212 0 366 -172 366 -385s-154 -385 -366 -385zM417 77c167 0 279 131 279 298s-112 298 -279 298c-166 0 -280 -131 -280 -298
s114 -298 280 -298z" />
    <glyph glyph-name="ohungarumlaut" unicode="&#x151;" horiz-adv-x="567" 
d="M165 576l147 174h86l-166 -174h-67zM337 576l146 174h86l-166 -174h-66zM284 -10c-146 0 -244 116 -244 260c0 145 98 260 244 260c145 0 244 -115 244 -260c0 -144 -99 -260 -244 -260zM284 69c96 0 157 80 157 181s-61 182 -157 182c-98 0 -157 -81 -157 -182
s59 -181 157 -181z" />
    <glyph glyph-name="OE" unicode="&#x152;" horiz-adv-x="1257" 
d="M1167 672h-327v-258h284v-78h-284v-258h327v-78h-401v147c-71 -95 -183 -157 -311 -157c-213 0 -385 172 -385 385s172 385 385 385c128 0 240 -62 311 -157v147h401v-78zM456 78c165 0 297 132 297 297s-132 298 -297 298c-166 0 -297 -133 -297 -298s131 -297 297 -297
z" />
    <glyph glyph-name="oe" unicode="&#x153;" horiz-adv-x="947" 
d="M907 250c0 -9 0 -19 -1 -29h-378c9 -93 62 -154 155 -154c60 0 98 21 138 83l62 -43c-41 -74 -109 -117 -203 -117c-89 0 -157 40 -197 104c-43 -63 -113 -104 -199 -104c-146 0 -244 116 -244 260c0 145 98 260 244 260c87 0 157 -41 199 -105c40 64 109 105 197 105
c143 0 227 -108 227 -260zM682 434c-87 0 -139 -57 -152 -144h297c-10 87 -60 144 -145 144zM284 69c96 0 157 80 157 181s-61 182 -157 182c-98 0 -157 -81 -157 -182s59 -181 157 -181z" />
    <glyph glyph-name="Racute" unicode="&#x154;" horiz-adv-x="592" 
d="M450 1000l-109 -155h-72l90 155h91zM391 340l189 -340h-102l-179 335h-133v-335h-91v750h275c116 0 211 -94 211 -212c0 -101 -74 -182 -170 -198zM166 410h182c72 0 129 58 129 130s-58 129 -129 129h-182v-259z" />
    <glyph glyph-name="racute" unicode="&#x155;" horiz-adv-x="399" 
d="M366 750l-109 -155h-72l90 155h91zM308 510c53 0 81 -9 109 -30l-43 -64c-11 6 -34 16 -70 16c-73 0 -141 -63 -141 -152v-280h-88v500h81l4 -76c36 52 90 86 148 86z" />
    <glyph glyph-name="Rcommaaccent" unicode="&#x156;" horiz-adv-x="592" 
d="M391 340l189 -340h-102l-179 335h-133v-335h-91v750h275c116 0 211 -94 211 -212c0 -101 -74 -182 -170 -198zM166 410h182c72 0 129 58 129 130s-58 129 -129 129h-182v-259zM304 -40c34 0 59 -27 59 -64c0 -87 -38 -172 -110 -169v34c53 2 63 82 50 82
c-33 0 -57 24 -57 58s24 59 58 59z" />
    <glyph glyph-name="rcommaaccent" unicode="&#x157;" horiz-adv-x="399" 
d="M308 510c53 0 81 -9 109 -30l-43 -64c-11 6 -34 16 -70 16c-73 0 -141 -63 -141 -152v-280h-88v500h81l4 -76c36 52 90 86 148 86zM121 -40c34 0 59 -27 59 -64c0 -87 -38 -172 -110 -169v34c53 2 63 82 50 82c-33 0 -57 24 -57 58s24 59 58 59z" />
    <glyph glyph-name="Rcaron" unicode="&#x158;" horiz-adv-x="592" 
d="M350 829h-94l-102 171h70l79 -126l80 126h69zM391 340l189 -340h-102l-179 335h-133v-335h-91v750h275c116 0 211 -94 211 -212c0 -101 -74 -182 -170 -198zM166 410h182c72 0 129 58 129 130s-58 129 -129 129h-182v-259z" />
    <glyph glyph-name="rcaron" unicode="&#x159;" horiz-adv-x="399" 
d="M266 579h-94l-102 171h70l79 -126l80 126h69zM308 510c53 0 81 -9 109 -30l-43 -64c-11 6 -34 16 -70 16c-73 0 -141 -63 -141 -152v-280h-88v500h81l4 -76c36 52 90 86 148 86z" />
    <glyph glyph-name="Sacute" unicode="&#x15a;" horiz-adv-x="629" 
d="M313 845l90 155h91l-109 -155h-72zM325 -10c-123 0 -231 60 -283 145l66 67c30 -75 117 -125 220 -125c89 0 159 35 160 119c1 97 -90 132 -185 168c-104 39 -213 80 -213 201c0 127 105 195 231 195c116 0 204 -44 254 -104l-61 -62c-34 51 -98 87 -191 87
c-76 0 -141 -34 -141 -109c0 -74 78 -106 165 -139c109 -43 233 -91 233 -232c0 -144 -112 -211 -255 -211z" />
    <glyph glyph-name="sacute" unicode="&#x15b;" horiz-adv-x="474" 
d="M207 595l90 155h91l-109 -155h-72zM242 -10c-81 0 -168 33 -205 77l46 60c25 -36 95 -63 154 -64c61 -2 110 25 110 72c0 51 -58 67 -122 86c-76 24 -163 50 -163 143c0 89 88 146 184 146c64 0 133 -24 173 -56l-49 -60c-27 25 -70 42 -109 45c-51 4 -109 -18 -109 -64
c0 -51 56 -68 117 -86c78 -22 167 -47 167 -147c0 -89 -84 -152 -194 -152z" />
    <glyph glyph-name="Scedilla" unicode="&#x15e;" horiz-adv-x="629" 
d="M580 201c0 -143 -109 -209 -250 -211l-28 -56c70 14 125 -27 125 -91c0 -56 -45 -102 -102 -102c-45 0 -96 28 -116 63l42 18c15 -20 47 -36 74 -36c32 0 56 25 56 57c0 47 -44 68 -100 46l-36 24l40 79c-106 12 -197 68 -243 143l66 67c30 -75 117 -125 220 -125
c89 0 159 35 160 119c1 97 -90 132 -185 168c-104 39 -213 80 -213 201c0 127 105 195 231 195c116 0 204 -44 254 -104l-61 -62c-34 51 -98 87 -191 87c-76 0 -141 -34 -141 -109c0 -74 78 -106 165 -139c109 -43 233 -91 233 -232z" />
    <glyph glyph-name="scedilla" unicode="&#x15f;" horiz-adv-x="474" 
d="M436 142c0 -82 -72 -143 -170 -151l-29 -58c70 14 125 -27 125 -91c0 -56 -45 -102 -102 -102c-45 0 -96 28 -116 63l42 18c15 -20 47 -36 74 -36c32 0 56 25 56 57c0 47 -44 68 -100 46l-36 24l39 79c-74 5 -148 36 -182 76l46 60c25 -36 95 -63 154 -64
c61 -2 110 25 110 72c0 51 -58 67 -122 86c-76 24 -163 50 -163 143c0 89 88 146 184 146c64 0 133 -24 173 -56l-49 -60c-27 25 -70 42 -109 45c-51 4 -109 -18 -109 -64c0 -51 56 -68 117 -86c78 -22 167 -47 167 -147z" />
    <glyph glyph-name="Scaron" unicode="&#x160;" horiz-adv-x="629" 
d="M300 829l-102 171h70l79 -126l80 126h69l-102 -171h-94zM325 -10c-123 0 -231 60 -283 145l66 67c30 -75 117 -125 220 -125c89 0 159 35 160 119c1 97 -90 132 -185 168c-104 39 -213 80 -213 201c0 127 105 195 231 195c116 0 204 -44 254 -104l-61 -62
c-34 51 -98 87 -191 87c-76 0 -141 -34 -141 -109c0 -74 78 -106 165 -139c109 -43 233 -91 233 -232c0 -144 -112 -211 -255 -211z" />
    <glyph glyph-name="scaron" unicode="&#x161;" horiz-adv-x="474" 
d="M194 579l-102 171h70l79 -126l80 126h69l-102 -171h-94zM242 -10c-81 0 -168 33 -205 77l46 60c25 -36 95 -63 154 -64c61 -2 110 25 110 72c0 51 -58 67 -122 86c-76 24 -163 50 -163 143c0 89 88 146 184 146c64 0 133 -24 173 -56l-49 -60c-27 25 -70 42 -109 45
c-51 4 -109 -18 -109 -64c0 -51 56 -68 117 -86c78 -22 167 -47 167 -147c0 -89 -84 -152 -194 -152z" />
    <glyph glyph-name="uni0162" unicode="&#x162;" horiz-adv-x="550" 
d="M25 750h501v-80h-205v-670h-91v670h-205v80zM265 -67c70 14 125 -27 125 -91c0 -56 -45 -102 -102 -102c-45 0 -96 28 -116 63l42 18c15 -20 47 -36 74 -36c32 0 56 25 56 57c0 47 -44 68 -100 46l-36 24l44 88h46z" />
    <glyph glyph-name="uni0163" unicode="&#x163;" horiz-adv-x="349" 
d="M346 29c-23 -24 -57 -38 -101 -39l-28 -57c70 14 125 -27 125 -91c0 -56 -45 -102 -102 -102c-45 0 -96 28 -116 63l42 18c15 -20 47 -36 74 -36c32 0 56 25 56 57c0 47 -44 68 -100 46l-36 24l41 82c-70 15 -113 70 -113 146v291h-65v69h65v170h88v-170h136v-69h-135
v-291c0 -49 25 -74 66 -74c22 0 39 7 54 23z" />
    <glyph glyph-name="Tcaron" unicode="&#x164;" horiz-adv-x="550" 
d="M322 829h-94l-102 171h70l79 -126l80 126h69zM526 750v-80h-205v-670h-91v670h-205v80h501z" />
    <glyph glyph-name="tcaron" unicode="&#x165;" horiz-adv-x="374" 
d="M318 707c-32 0 -58 26 -58 58c0 33 26 58 59 58c46 0 67 -48 67 -105c0 -84 -44 -186 -119 -188v44c38 1 64 69 64 107c0 15 -4 26 -13 26zM243 66c22 0 39 7 54 23l49 -60c-24 -25 -59 -39 -105 -39c-93 0 -153 61 -153 150v291h-65v69h65v170h88v-170h136v-69h-135
v-291c0 -49 25 -74 66 -74z" />
    <glyph glyph-name="Tbar" unicode="&#x166;" horiz-adv-x="550" 
d="M526 670h-205v-263h103v-63h-103v-344h-91v344h-105v63h105v263h-205v80h501v-80z" />
    <glyph glyph-name="tbar" unicode="&#x167;" horiz-adv-x="349" 
d="M297 89l49 -60c-24 -25 -59 -39 -105 -39c-93 0 -153 61 -153 150v79h-64v63h64v149h-65v69h65v170h88v-170h136v-69h-135v-149h146v-63h-146v-79c0 -49 25 -74 66 -74c22 0 39 7 54 23z" />
    <glyph glyph-name="Utilde" unicode="&#x168;" horiz-adv-x="730" 
d="M435 836c-38 0 -68 17 -93 54c-13 20 -26 29 -45 29c-31 0 -48 -30 -40 -74h-56c-11 76 32 129 94 129c41 0 71 -21 93 -55c12 -20 25 -29 45 -29c31 0 48 30 40 75h56c11 -74 -30 -129 -94 -129zM365 -10c-159 0 -285 113 -285 256v504h91v-489c0 -106 86 -190 194 -190
s194 84 194 190v489h92v-504c0 -143 -127 -256 -286 -256z" />
    <glyph glyph-name="Umacron" unicode="&#x16a;" horiz-adv-x="730" 
d="M210 851v59h310v-59h-310zM365 -10c-159 0 -285 113 -285 256v504h91v-489c0 -106 86 -190 194 -190s194 84 194 190v489h92v-504c0 -143 -127 -256 -286 -256z" />
    <glyph glyph-name="umacron" unicode="&#x16b;" horiz-adv-x="594" 
d="M452 660v-59h-310v59h310zM430 500h89v-500h-81l-5 67c-37 -47 -94 -77 -159 -77c-111 0 -197 89 -197 199v311h88v-302c0 -72 58 -129 131 -129c74 0 134 57 134 129v302z" />
    <glyph glyph-name="Uring" unicode="&#x16e;" horiz-adv-x="730" 
d="M365 809c-57 0 -103 46 -103 102s46 102 103 102c56 0 101 -46 101 -102s-45 -102 -101 -102zM365 849c34 0 60 26 60 62c0 34 -26 62 -60 62s-61 -28 -61 -62c0 -36 27 -62 61 -62zM365 -10c-159 0 -285 113 -285 256v504h91v-489c0 -106 86 -190 194 -190
s194 84 194 190v489h92v-504c0 -143 -127 -256 -286 -256z" />
    <glyph glyph-name="uring" unicode="&#x16f;" horiz-adv-x="594" 
d="M298 559c-57 0 -103 46 -103 102s46 102 103 102c56 0 101 -46 101 -102s-45 -102 -101 -102zM298 723c-34 0 -61 -28 -61 -62c0 -36 27 -62 61 -62s60 26 60 62c0 34 -26 62 -60 62zM430 500h89v-500h-81l-5 67c-37 -47 -94 -77 -159 -77c-111 0 -197 89 -197 199v311
h88v-302c0 -72 58 -129 131 -129c74 0 134 57 134 129v302z" />
    <glyph glyph-name="Uhungarumlaut" unicode="&#x170;" horiz-adv-x="730" 
d="M247 826l147 174h86l-166 -174h-67zM419 826l146 174h86l-166 -174h-66zM365 -10c-159 0 -285 113 -285 256v504h91v-489c0 -106 86 -190 194 -190s194 84 194 190v489h92v-504c0 -143 -127 -256 -286 -256z" />
    <glyph glyph-name="uhungarumlaut" unicode="&#x171;" horiz-adv-x="594" 
d="M412 750l-166 -174h-67l147 174h86zM417 576h-66l146 174h86zM430 198v302h89v-500h-81l-5 67c-37 -47 -94 -77 -159 -77c-111 0 -197 89 -197 199v311h88v-302c0 -72 58 -129 131 -129c74 0 134 57 134 129z" />
    <glyph glyph-name="Uogonek" unicode="&#x172;" horiz-adv-x="730" 
d="M559 750h92v-504c0 -126 -98 -228 -230 -251c-51 -25 -98 -79 -98 -136c0 -37 23 -65 66 -65c37 0 72 18 94 47l29 -43c-37 -37 -86 -54 -137 -51c-67 3 -114 40 -114 105c0 55 36 102 91 138c-153 6 -272 117 -272 256v504h91v-489c0 -106 86 -190 194 -190
s194 84 194 190v489z" />
    <glyph glyph-name="uogonek" unicode="&#x173;" horiz-adv-x="594" 
d="M547 -165l29 -43c-37 -37 -86 -54 -137 -51c-67 3 -114 40 -114 105c0 64 48 116 118 154h-5l-5 67c-37 -47 -94 -77 -159 -77c-111 0 -197 89 -197 199v311h88v-302c0 -72 58 -129 131 -129c74 0 134 57 134 129v302h89v-500h-1c-62 -12 -131 -78 -131 -147
c0 -37 23 -65 66 -65c37 0 72 18 94 47z" />
    <glyph glyph-name="Wcircumflex" unicode="&#x174;" horiz-adv-x="1083" 
d="M542 957l-77 -128h-72l102 171h94l102 -171h-72zM995 750h98l-316 -750h-99l-136 322l-136 -322h-98l-318 750h99l271 -642l136 322l-135 320h94l269 -642z" />
    <glyph glyph-name="wcircumflex" unicode="&#x175;" horiz-adv-x="717" 
d="M313 707l-77 -128h-72l102 171h94l102 -171h-72zM610 500h98l-171 -500h-97l-83 238l-80 -238h-96l-172 500h100l125 -394l82 247l-51 147h87l131 -396z" />
    <glyph glyph-name="Ycircumflex" unicode="&#x176;" horiz-adv-x="653" 
d="M327 957l-77 -128h-72l102 171h94l102 -171h-72zM634 750l-261 -394v-356h-92v354l-262 396h103l205 -317l205 317h102z" />
    <glyph glyph-name="ycircumflex" unicode="&#x177;" horiz-adv-x="594" 
d="M297 707l-77 -128h-72l102 171h94l102 -171h-72zM519 500v-513c0 -137 -80 -243 -241 -243c-73 0 -128 18 -174 48v96c44 -38 103 -65 181 -65c99 0 145 63 145 164v77c-37 -46 -93 -74 -156 -74c-111 0 -197 89 -197 199v311h88v-302c0 -72 58 -129 131 -129
c74 0 134 57 134 129v302h89z" />
    <glyph glyph-name="Ydieresis" unicode="&#x178;" horiz-adv-x="653" 
d="M234 843c-32 0 -59 25 -59 57c0 33 27 59 59 59s58 -26 58 -59c0 -32 -26 -57 -58 -57zM421 843c-31 0 -58 25 -58 57c0 33 27 59 58 59c32 0 58 -26 58 -59c0 -32 -26 -57 -58 -57zM634 750l-261 -394v-356h-92v354l-262 396h103l205 -317l205 317h102z" />
    <glyph glyph-name="Zacute" unicode="&#x179;" horiz-adv-x="659" 
d="M481 1000l-109 -155h-72l90 155h91zM170 81h443v-81h-568v48l431 621h-420v81h545v-48z" />
    <glyph glyph-name="zacute" unicode="&#x17a;" horiz-adv-x="528" 
d="M242 595l90 155h91l-109 -155h-72zM48 0v62l308 364h-302v74h419v-60l-308 -366h315v-74h-432z" />
    <glyph glyph-name="Zdotaccent" unicode="&#x17b;" horiz-adv-x="659" 
d="M335 843c-32 0 -59 25 -59 57c0 33 27 59 59 59s58 -26 58 -59c0 -32 -26 -57 -58 -57zM170 81h443v-81h-568v48l431 621h-420v81h545v-48z" />
    <glyph glyph-name="zdotaccent" unicode="&#x17c;" horiz-adv-x="528" 
d="M276 593c-32 0 -59 25 -59 57c0 33 27 59 59 59s58 -26 58 -59c0 -32 -26 -57 -58 -57zM48 0v62l308 364h-302v74h419v-60l-308 -366h315v-74h-432z" />
    <glyph glyph-name="Zcaron" unicode="&#x17d;" horiz-adv-x="659" 
d="M381 829h-94l-102 171h70l79 -126l80 126h69zM170 81h443v-81h-568v48l431 621h-420v81h545v-48z" />
    <glyph glyph-name="zcaron" unicode="&#x17e;" horiz-adv-x="528" 
d="M229 579l-102 171h70l79 -126l80 126h69l-102 -171h-94zM48 0v62l308 364h-302v74h419v-60l-308 -366h315v-74h-432z" />
    <glyph glyph-name="florin" unicode="&#x192;" horiz-adv-x="441" 
d="M360 694c-51 0 -91 -37 -100 -90l-16 -104h140l-11 -69h-140l-108 -681h-80l107 681h-83l11 69h83l19 115c12 83 89 145 170 145c26 0 54 -8 66 -17l-8 -65c-12 11 -33 16 -50 16z" />
    <glyph glyph-name="uni01CD" unicode="&#x1cd;" horiz-adv-x="743" 
d="M418 829h-94l-102 171h70l79 -126l80 126h69zM624 0l-61 157h-384l-61 -157h-99l301 750h102l301 -750h-99zM208 234h326l-163 422z" />
    <glyph glyph-name="uni01CE" unicode="&#x1ce;" horiz-adv-x="537" 
d="M318 579h-94l-102 171h70l79 -126l80 126h69zM259 510c115 0 207 -61 207 -190v-320h-78l-5 71c-54 -48 -120 -81 -185 -81c-89 0 -153 64 -153 153s68 168 243 139l91 -15v59c0 76 -56 109 -124 109c-59 0 -104 -24 -134 -69l-61 54c38 55 104 90 199 90zM135 147
c0 -47 33 -78 83 -78c58 0 114 33 161 76v57l-82 14c-126 23 -162 -20 -162 -69z" />
    <glyph glyph-name="uni01CF" unicode="&#x1cf;" horiz-adv-x="241" 
d="M73 829l-102 171h70l79 -126l80 126h69l-102 -171h-94zM75 0v750h91v-750h-91z" />
    <glyph glyph-name="uni01D0" unicode="&#x1d0;" horiz-adv-x="238" 
d="M72 579l-102 171h70l79 -126l80 126h69l-102 -171h-94zM75 0v500h88v-500h-88z" />
    <glyph glyph-name="uni01D1" unicode="&#x1d1;" horiz-adv-x="834" 
d="M370 829l-102 171h70l79 -126l80 126h69l-102 -171h-94zM417 -10c-213 0 -366 172 -366 385s153 385 366 385c212 0 366 -172 366 -385s-154 -385 -366 -385zM417 77c167 0 279 131 279 298s-112 298 -279 298c-166 0 -280 -131 -280 -298s114 -298 280 -298z" />
    <glyph glyph-name="uni01D2" unicode="&#x1d2;" horiz-adv-x="567" 
d="M236 579l-102 171h70l79 -126l80 126h69l-102 -171h-94zM284 -10c-146 0 -244 116 -244 260c0 145 98 260 244 260c145 0 244 -115 244 -260c0 -144 -99 -260 -244 -260zM284 69c96 0 157 80 157 181s-61 182 -157 182c-98 0 -157 -81 -157 -182s59 -181 157 -181z" />
    <glyph glyph-name="uni01D3" unicode="&#x1d3;" horiz-adv-x="730" 
d="M318 829l-102 171h70l79 -126l80 126h69l-102 -171h-94zM365 -10c-159 0 -285 113 -285 256v504h91v-489c0 -106 86 -190 194 -190s194 84 194 190v489h92v-504c0 -143 -127 -256 -286 -256z" />
    <glyph glyph-name="uni01D4" unicode="&#x1d4;" horiz-adv-x="594" 
d="M344 579h-94l-102 171h70l79 -126l80 126h69zM430 500h89v-500h-81l-5 67c-37 -47 -94 -77 -159 -77c-111 0 -197 89 -197 199v311h88v-302c0 -72 58 -129 131 -129c74 0 134 57 134 129v302z" />
    <glyph glyph-name="Gcaron" unicode="&#x1e6;" horiz-adv-x="740" 
d="M501 829h-94l-102 171h70l79 -126l80 126h69zM452 673c-163 0 -296 -117 -296 -301s133 -301 296 -301c46 0 91 11 132 31v217h-174v82h255v-353c-62 -39 -136 -64 -214 -64c-209 0 -380 156 -380 388c0 233 171 388 378 388c79 0 154 -25 216 -64v-114
c-52 57 -132 91 -213 91z" />
    <glyph glyph-name="gcaron" unicode="&#x1e7;" horiz-adv-x="596" 
d="M327 579h-94l-102 171h70l79 -126l80 126h69zM441 500h80v-494c0 -146 -91 -256 -236 -256c-63 0 -112 18 -154 47v96c40 -38 91 -65 160 -65c85 0 143 69 143 178v63c-40 -49 -97 -79 -164 -79c-141 0 -230 115 -230 260c0 146 89 260 230 260c69 0 127 -32 167 -83z
M284 69c70 0 130 54 150 128v106c-20 75 -80 129 -150 129c-98 0 -157 -81 -157 -182c0 -100 59 -181 157 -181z" />
    <glyph glyph-name="Oslashacute" unicode="&#x1fe;" horiz-adv-x="834" 
d="M564 1000l-109 -155h-72l90 155h91zM651 675c82 -71 132 -179 132 -300c0 -213 -154 -385 -366 -385c-71 0 -136 19 -190 53l-39 -58h-64l60 89c-83 71 -133 179 -133 301c0 213 153 385 366 385c72 0 137 -20 191 -54l39 58h64zM137 375c0 -93 35 -175 95 -229l328 489
c-40 24 -89 38 -143 38c-166 0 -280 -131 -280 -298zM417 77c167 0 279 131 279 298c0 92 -34 174 -93 228l-328 -489c40 -24 89 -37 142 -37z" />
    <glyph glyph-name="oslashacute" unicode="&#x1ff;" horiz-adv-x="567" 
d="M430 750l-109 -155h-72l90 155h91zM443 451c53 -47 85 -119 85 -201c0 -144 -99 -260 -244 -260c-49 0 -92 13 -128 35l-37 -56h-47l53 79c-54 47 -85 120 -85 202c0 145 98 260 244 260c48 0 92 -13 128 -36l38 57h46zM127 250c0 -52 16 -99 45 -132l195 289
c-23 16 -51 25 -83 25c-98 0 -157 -81 -157 -182zM284 69c96 0 157 80 157 181c0 52 -17 99 -45 132l-195 -290c23 -15 51 -23 83 -23z" />
    <glyph glyph-name="Scommaaccent" unicode="&#x218;" horiz-adv-x="629" 
d="M325 -10c-123 0 -231 60 -283 145l66 67c30 -75 117 -125 220 -125c89 0 159 35 160 119c1 97 -90 132 -185 168c-104 39 -213 80 -213 201c0 127 105 195 231 195c116 0 204 -44 254 -104l-61 -62c-34 51 -98 87 -191 87c-76 0 -141 -34 -141 -109
c0 -74 78 -106 165 -139c109 -43 233 -91 233 -232c0 -144 -112 -211 -255 -211zM262 -273v34c53 2 63 82 50 82c-33 0 -57 24 -57 58s24 59 58 59s59 -27 59 -64c0 -87 -38 -172 -110 -169z" />
    <glyph glyph-name="scommaaccent" unicode="&#x219;" horiz-adv-x="474" 
d="M242 -10c-81 0 -168 33 -205 77l46 60c25 -36 95 -63 154 -64c61 -2 110 25 110 72c0 51 -58 67 -122 86c-76 24 -163 50 -163 143c0 89 88 146 184 146c64 0 133 -24 173 -56l-49 -60c-27 25 -70 42 -109 45c-51 4 -109 -18 -109 -64c0 -51 56 -68 117 -86
c78 -22 167 -47 167 -147c0 -89 -84 -152 -194 -152zM196 -273v34c53 2 63 82 50 82c-33 0 -57 24 -57 58s24 59 58 59s59 -27 59 -64c0 -87 -38 -172 -110 -169z" />
    <glyph glyph-name="uni021A" unicode="&#x21a;" horiz-adv-x="550" 
d="M25 750h501v-80h-205v-670h-91v670h-205v80zM276 -40c34 0 59 -27 59 -64c0 -87 -38 -172 -110 -169v34c53 2 63 82 50 82c-33 0 -57 24 -57 58s24 59 58 59z" />
    <glyph glyph-name="uni021B" unicode="&#x21b;" horiz-adv-x="349" 
d="M297 89l49 -60c-24 -25 -59 -39 -105 -39c-93 0 -153 61 -153 150v291h-65v69h65v170h88v-170h136v-69h-135v-291c0 -49 25 -74 66 -74c22 0 39 7 54 23zM228 -40c34 0 59 -27 59 -64c0 -87 -38 -172 -110 -169v34c53 2 63 82 50 82c-33 0 -57 24 -57 58s24 59 58 59z
" />
    <glyph glyph-name="uni0228" unicode="&#x228;" horiz-adv-x="542" 
d="M490 669h-324v-253h282v-82h-282v-253h324v-81h-184l-33 -67c70 14 125 -27 125 -91c0 -56 -45 -102 -102 -102c-45 0 -96 28 -116 63l42 18c15 -20 47 -36 74 -36c32 0 56 25 56 57c0 47 -44 68 -100 46l-36 24l44 88h-185v750h415v-81z" />
    <glyph glyph-name="uni0229" unicode="&#x229;" horiz-adv-x="545" 
d="M505 250c0 -9 0 -19 -1 -29h-378c9 -92 62 -154 155 -154c60 0 98 21 138 83l62 -43c-38 -68 -99 -111 -183 -116l-28 -58c70 14 125 -27 125 -91c0 -56 -45 -102 -102 -102c-45 0 -96 28 -116 63l42 18c15 -20 47 -36 74 -36c32 0 56 25 56 57c0 47 -44 68 -100 46
l-36 24l40 79c-133 12 -213 118 -213 258c0 149 91 261 238 261c143 0 227 -108 227 -260zM280 434c-87 0 -139 -58 -152 -144h297c-9 88 -60 144 -145 144z" />
    <glyph glyph-name="uni0237" unicode="&#x237;" horiz-adv-x="291" 
d="M44 -260c-23 0 -52 7 -65 16v77c14 -11 38 -19 55 -19c42 0 75 34 75 79v607h88v-612c0 -83 -67 -148 -153 -148z" />
    <glyph glyph-name="circumflex" unicode="&#x2c6;" horiz-adv-x="50" 
d="M30 579l102 171h94l102 -171h-72l-77 128l-77 -128h-72z" />
    <glyph glyph-name="caron" unicode="&#x2c7;" horiz-adv-x="50" 
d="M132 579l-102 171h70l79 -126l80 126h69l-102 -171h-94z" />
    <glyph glyph-name="breve" unicode="&#x2d8;" horiz-adv-x="50" 
d="M291 565c-96 0 -167 59 -167 156h55c0 -55 47 -101 112 -101c66 0 113 46 113 101h54c0 -97 -70 -156 -167 -156z" />
    <glyph glyph-name="dotaccent" unicode="&#x2d9;" horiz-adv-x="50" 
d="M149 593c-32 0 -59 25 -59 57c0 33 27 59 59 59s58 -26 58 -59c0 -32 -26 -57 -58 -57z" />
    <glyph glyph-name="ring" unicode="&#x2da;" horiz-adv-x="50" 
d="M91 559c-57 0 -103 46 -103 102s46 102 103 102c56 0 101 -46 101 -102s-45 -102 -101 -102zM91 599c34 0 60 26 60 62c0 34 -26 62 -60 62s-61 -28 -61 -62c0 -36 27 -62 61 -62z" />
    <glyph glyph-name="ogonek" unicode="&#x2db;" horiz-adv-x="50" 
d="M132 -259c-67 3 -114 40 -114 105c0 73 63 131 148 169l45 -15c-62 -12 -131 -78 -131 -147c0 -37 23 -65 66 -65c37 0 72 18 94 47l29 -43c-37 -37 -86 -54 -137 -51z" />
    <glyph glyph-name="tilde" unicode="&#x2dc;" horiz-adv-x="51" 
d="M266 616c-38 0 -68 17 -93 54c-13 20 -26 29 -45 29c-31 0 -48 -30 -40 -74h-56c-11 76 32 129 94 129c41 0 71 -21 93 -55c12 -20 25 -29 45 -29c31 0 48 30 40 75h56c11 -74 -30 -129 -94 -129z" />
    <glyph glyph-name="hungarumlaut" unicode="&#x2dd;" horiz-adv-x="50" 
d="M30 576l147 174h86l-166 -174h-67zM202 576l146 174h86l-166 -174h-66z" />
    <glyph glyph-name="gravecomb" unicode="&#x300;" 
d="M-102 595l-110 155h91l90 -155h-71z" />
    <glyph glyph-name="acutecomb" unicode="&#x301;" 
d="M-212 595l90 155h91l-109 -155h-72z" />
    <glyph glyph-name="uni0302" unicode="&#x302;" 
d="M-328 579l102 171h94l102 -171h-72l-77 128l-77 -128h-72z" />
    <glyph glyph-name="tildecomb" unicode="&#x303;" 
d="M-127 616c-38 0 -68 17 -93 54c-13 20 -26 29 -45 29c-31 0 -48 -30 -40 -74h-56c-11 76 32 129 94 129c41 0 71 -21 93 -55c12 -20 25 -29 45 -29c31 0 48 30 40 75h56c11 -74 -30 -129 -94 -129z" />
    <glyph glyph-name="uni0304" unicode="&#x304;" 
d="M-341 601v59h310v-59h-310z" />
    <glyph glyph-name="uni0306" unicode="&#x306;" 
d="M-340 565c-96 0 -167 59 -167 156h55c0 -55 47 -101 112 -101c66 0 113 46 113 101h54c0 -97 -70 -156 -167 -156z" />
    <glyph glyph-name="uni0307" unicode="&#x307;" 
d="M-149 593c-32 0 -59 25 -59 57c0 33 27 59 59 59s58 -26 58 -59c0 -32 -26 -57 -58 -57z" />
    <glyph glyph-name="uni0308" unicode="&#x308;" 
d="M-307 593c-32 0 -59 25 -59 57c0 33 27 59 59 59s58 -26 58 -59c0 -32 -26 -57 -58 -57zM-120 593c-31 0 -58 25 -58 57c0 33 27 59 58 59c32 0 58 -26 58 -59c0 -32 -26 -57 -58 -57z" />
    <glyph glyph-name="uni030A" unicode="&#x30a;" 
d="M-89 559c-57 0 -103 46 -103 102s46 102 103 102c56 0 101 -46 101 -102s-45 -102 -101 -102zM-89 599c34 0 60 26 60 62c0 34 -26 62 -60 62s-61 -28 -61 -62c0 -36 27 -62 61 -62z" />
    <glyph glyph-name="uni030B" unicode="&#x30b;" 
d="M-434 576l147 174h86l-166 -174h-67zM-262 576l146 174h86l-166 -174h-66z" />
    <glyph glyph-name="uni030C" unicode="&#x30c;" 
d="M-226 579l-102 171h70l79 -126l80 126h69l-102 -171h-94z" />
    <glyph glyph-name="uni0312" unicode="&#x312;" 
d="M-90 526c-33 0 -59 28 -59 64c-1 87 65 167 110 169v-33c-45 -17 -63 -83 -51 -83c33 0 58 -25 58 -57c0 -33 -25 -60 -58 -60z" />
    <glyph glyph-name="dotbelowcomb" unicode="&#x323;" 
d="M-89 -250c-32 0 -59 26 -59 58s27 59 59 59s58 -27 58 -59s-26 -58 -58 -58z" />
    <glyph glyph-name="uni0326" unicode="&#x326;" 
d="M-140 -126v34c53 2 63 82 50 82c-33 0 -57 24 -57 59c0 33 24 58 58 58s59 -26 59 -64c0 -87 -38 -172 -110 -169z" />
    <glyph glyph-name="uni0327" unicode="&#x327;" 
d="M-132 -260c-45 0 -96 28 -116 63l42 18c15 -20 47 -36 74 -36c32 0 56 25 56 57c0 47 -44 68 -100 46l-36 24l44 88h46l-33 -67c70 14 125 -27 125 -91c0 -56 -45 -102 -102 -102z" />
    <glyph glyph-name="uni0328" unicode="&#x328;" 
d="M-168 -259c-67 3 -114 40 -114 105c0 73 63 131 148 169l45 -15c-62 -12 -131 -78 -131 -147c0 -37 23 -65 66 -65c37 0 72 18 94 47l29 -43c-37 -37 -86 -54 -137 -51z" />
    <glyph glyph-name="uni0335" unicode="&#x335;" 
d="M-469 229v63h299v-63h-299z" />
    <glyph glyph-name="uni0336" unicode="&#x336;" 
d="M-749 240v40h718v-40h-718z" />
    <glyph glyph-name="uni0337" unicode="&#x337;" 
d="M-433 119l254 270h70l-258 -270h-66z" />
    <glyph glyph-name="uni0338" unicode="&#x338;" 
d="M-608 -14l523 779h64l-523 -779h-64z" />
    <glyph glyph-name="uni0394" unicode="&#x394;" horiz-adv-x="789" 
d="M37 0v55l308 703h102l304 -703v-55h-714zM125 72h532l-177 404c-22 55 -68 159 -83 204h-10c-9 -31 -52 -128 -74 -184z" />
    <glyph glyph-name="Lambda" unicode="&#x39b;" horiz-adv-x="743" 
d="M723 0h-99l-253 647l-253 -647h-99l301 750h102z" />
    <glyph glyph-name="Xi" unicode="&#x39e;" horiz-adv-x="595" 
d="M73 669v81h430v-81h-430zM124 334v82h328v-82h-328zM73 0v81h430v-81h-430z" />
    <glyph glyph-name="uni03A9" unicode="&#x3a9;" horiz-adv-x="888" 
d="M60 0v65h167v7c-77 61 -150 176 -150 321c0 202 154 358 370 358c222 0 363 -170 363 -356c0 -144 -76 -265 -152 -323v-7h169v-65h-293v48c97 50 190 167 190 333c0 149 -98 304 -276 304c-172 0 -285 -136 -285 -305c0 -161 95 -284 190 -332v-48h-293z" />
    <glyph glyph-name="uni03BC" unicode="&#x3bc;" horiz-adv-x="620" 
d="M434 500h88v-500h-88v72c-37 -50 -94 -82 -158 -82c-49 0 -94 18 -128 48v-288h-68v750h89v-302c0 -72 58 -129 130 -129c75 0 135 57 135 129v302z" />
    <glyph glyph-name="pi" unicode="&#x3c0;" horiz-adv-x="692" 
d="M76 0c43 111 81 326 87 478c-76 0 -114 -4 -141 -14l-10 52c29 17 79 29 169 29h487l-7 -67h-100v-316c0 -83 5 -128 16 -162h-82c-13 22 -18 76 -18 152v326l-231 1c-6 -135 -44 -381 -88 -479h-82z" />
    <glyph glyph-name="uni1E04" unicode="&#x1e04;" horiz-adv-x="645" 
d="M444 386c88 -22 153 -88 153 -187c0 -119 -92 -199 -207 -199h-315v750h256c116 0 209 -81 209 -200c0 -76 -38 -133 -96 -164zM449 542c0 70 -57 127 -128 127h-155v-256h155c71 0 128 58 128 129zM378 81c71 0 128 58 128 129c0 69 -57 127 -128 127h-212v-256h212z
M312 -67c32 0 58 -27 58 -59s-26 -58 -58 -58s-59 26 -59 58s27 59 59 59z" />
    <glyph glyph-name="uni1E05" unicode="&#x1e05;" horiz-adv-x="595" 
d="M325 510c141 0 230 -115 230 -260s-89 -260 -230 -260c-70 0 -128 31 -167 82l-4 -72h-79v750h87v-317c39 47 95 77 163 77zM311 69c98 0 158 80 158 181s-60 182 -158 182c-72 0 -130 -54 -149 -128v-108c19 -74 77 -127 149 -127zM332 -67c32 0 58 -27 58 -59
s-26 -58 -58 -58s-59 26 -59 58s27 59 59 59z" />
    <glyph glyph-name="uni1E24" unicode="&#x1e24;" horiz-adv-x="731" 
d="M565 750h91v-750h-91v334h-399v-334h-91v750h91v-334h399v334zM369 -67c32 0 58 -27 58 -59s-26 -58 -58 -58s-59 26 -59 58s27 59 59 59z" />
    <glyph glyph-name="uni1E25" unicode="&#x1e25;" horiz-adv-x="588" 
d="M322 510c112 0 195 -81 195 -194v-316h-89v306c0 72 -56 126 -130 126c-75 0 -135 -58 -135 -130v-302h-88v750h88v-313c38 45 94 73 159 73zM290 -67c32 0 58 -27 58 -59s-26 -58 -58 -58s-59 26 -59 58s27 59 59 59z" />
    <glyph glyph-name="uni1E36" unicode="&#x1e36;" horiz-adv-x="475" 
d="M75 0v750h91v-669h275v-81h-366zM259 -184c-32 0 -59 26 -59 58s27 59 59 59s58 -27 58 -59s-26 -58 -58 -58z" />
    <glyph glyph-name="uni1E37" unicode="&#x1e37;" horiz-adv-x="327" 
d="M232 -10c-94 0 -153 61 -153 150v610h88l1 -610c0 -49 25 -74 66 -74c22 0 39 7 54 23l49 -60c-24 -25 -60 -39 -105 -39zM213 -184c-32 0 -59 26 -59 58s27 59 59 59s58 -27 58 -59s-26 -58 -58 -58z" />
    <glyph glyph-name="uni1E44" unicode="&#x1e44;" horiz-adv-x="778" 
d="M388 843c-32 0 -59 25 -59 57c0 33 27 59 59 59s58 -26 58 -59c0 -32 -26 -57 -58 -57zM613 750h90v-750h-87l-450 603v-603h-91v750h87l451 -604v604z" />
    <glyph glyph-name="uni1E45" unicode="&#x1e45;" horiz-adv-x="588" 
d="M296 593c-32 0 -59 25 -59 57c0 33 27 59 59 59s58 -26 58 -59c0 -32 -26 -57 -58 -57zM322 510c112 0 195 -81 195 -194v-316h-89v306c0 72 -56 126 -130 126c-75 0 -135 -58 -135 -130v-302h-88v500h81l4 -66c38 46 95 76 162 76z" />
    <glyph glyph-name="uni1E46" unicode="&#x1e46;" horiz-adv-x="778" 
d="M613 750h90v-750h-87l-450 603v-603h-91v750h87l451 -604v604zM392 -67c32 0 58 -27 58 -59s-26 -58 -58 -58s-59 26 -59 58s27 59 59 59z" />
    <glyph glyph-name="uni1E47" unicode="&#x1e47;" horiz-adv-x="588" 
d="M322 510c112 0 195 -81 195 -194v-316h-89v306c0 72 -56 126 -130 126c-75 0 -135 -58 -135 -130v-302h-88v500h81l4 -66c38 46 95 76 162 76zM296 -67c32 0 58 -27 58 -59s-26 -58 -58 -58s-59 26 -59 58s27 59 59 59z" />
    <glyph glyph-name="uni1E62" unicode="&#x1e62;" horiz-adv-x="629" 
d="M325 -10c-123 0 -231 60 -283 145l66 67c30 -75 117 -125 220 -125c89 0 159 35 160 119c1 97 -90 132 -185 168c-104 39 -213 80 -213 201c0 127 105 195 231 195c116 0 204 -44 254 -104l-61 -62c-34 51 -98 87 -191 87c-76 0 -141 -34 -141 -109
c0 -74 78 -106 165 -139c109 -43 233 -91 233 -232c0 -144 -112 -211 -255 -211zM312 -184c-32 0 -59 26 -59 58s27 59 59 59s58 -27 58 -59s-26 -58 -58 -58z" />
    <glyph glyph-name="uni1E63" unicode="&#x1e63;" horiz-adv-x="474" 
d="M242 -10c-81 0 -168 33 -205 77l46 60c25 -36 95 -63 154 -64c61 -2 110 25 110 72c0 51 -58 67 -122 86c-76 24 -163 50 -163 143c0 89 88 146 184 146c64 0 133 -24 173 -56l-49 -60c-27 25 -70 42 -109 45c-51 4 -109 -18 -109 -64c0 -51 56 -68 117 -86
c78 -22 167 -47 167 -147c0 -89 -84 -152 -194 -152zM247 -184c-32 0 -59 26 -59 58s27 59 59 59s58 -27 58 -59s-26 -58 -58 -58z" />
    <glyph glyph-name="uni1E6C" unicode="&#x1e6c;" horiz-adv-x="550" 
d="M25 750h501v-80h-205v-670h-91v670h-205v80zM275 -67c32 0 58 -27 58 -59s-26 -58 -58 -58s-59 26 -59 58s27 59 59 59z" />
    <glyph glyph-name="uni1E6D" unicode="&#x1e6d;" horiz-adv-x="349" 
d="M297 89l49 -60c-24 -25 -59 -39 -105 -39c-93 0 -153 61 -153 150v291h-65v69h65v170h88v-170h136v-69h-135v-291c0 -49 25 -74 66 -74c22 0 39 7 54 23zM227 -67c32 0 58 -27 58 -59s-26 -58 -58 -58s-59 26 -59 58s27 59 59 59z" />
    <glyph glyph-name="Wgrave" unicode="&#x1e80;" horiz-adv-x="1083" 
d="M574 845h-71l-110 155h91zM995 750h98l-316 -750h-99l-136 322l-136 -322h-98l-318 750h99l271 -642l136 322l-135 320h94l269 -642z" />
    <glyph glyph-name="wgrave" unicode="&#x1e81;" horiz-adv-x="717" 
d="M344 595h-71l-110 155h91zM610 500h98l-171 -500h-97l-83 238l-80 -238h-96l-172 500h100l125 -394l82 247l-51 147h87l131 -396z" />
    <glyph glyph-name="Wacute" unicode="&#x1e82;" horiz-adv-x="1083" 
d="M689 1000l-109 -155h-72l90 155h91zM995 750h98l-316 -750h-99l-136 322l-136 -322h-98l-318 750h99l271 -642l136 322l-135 320h94l269 -642z" />
    <glyph glyph-name="wacute" unicode="&#x1e83;" horiz-adv-x="717" 
d="M460 750l-109 -155h-72l90 155h91zM610 500h98l-171 -500h-97l-83 238l-80 -238h-96l-172 500h100l125 -394l82 247l-51 147h87l131 -396z" />
    <glyph glyph-name="Wdieresis" unicode="&#x1e84;" horiz-adv-x="1083" 
d="M449 843c-32 0 -59 25 -59 57c0 33 27 59 59 59s58 -26 58 -59c0 -32 -26 -57 -58 -57zM636 843c-31 0 -58 25 -58 57c0 33 27 59 58 59c32 0 58 -26 58 -59c0 -32 -26 -57 -58 -57zM995 750h98l-316 -750h-99l-136 322l-136 -322h-98l-318 750h99l271 -642l136 322
l-135 320h94l269 -642z" />
    <glyph glyph-name="wdieresis" unicode="&#x1e85;" horiz-adv-x="717" 
d="M219 593c-32 0 -59 25 -59 57c0 33 27 59 59 59s58 -26 58 -59c0 -32 -26 -57 -58 -57zM406 593c-31 0 -58 25 -58 57c0 33 27 59 58 59c32 0 58 -26 58 -59c0 -32 -26 -57 -58 -57zM610 500h98l-171 -500h-97l-83 238l-80 -238h-96l-172 500h100l125 -394l82 247
l-51 147h87l131 -396z" />
    <glyph glyph-name="uni1E92" unicode="&#x1e92;" horiz-adv-x="659" 
d="M170 81h443v-81h-568v48l431 621h-420v81h545v-48zM326 -67c32 0 58 -27 58 -59s-26 -58 -58 -58s-59 26 -59 58s27 59 59 59z" />
    <glyph glyph-name="uni1E93" unicode="&#x1e93;" horiz-adv-x="528" 
d="M48 0v62l308 364h-302v74h419v-60l-308 -366h315v-74h-432zM265 -184c-32 0 -59 26 -59 58s27 59 59 59s58 -27 58 -59s-26 -58 -58 -58z" />
    <glyph glyph-name="uni1EA0" unicode="&#x1ea0;" horiz-adv-x="743" 
d="M723 0h-99l-61 157h-384l-61 -157h-99l301 750h102zM208 234h326l-163 422zM372 -67c32 0 58 -27 58 -59s-26 -58 -58 -58s-59 26 -59 58s27 59 59 59z" />
    <glyph glyph-name="uni1EA1" unicode="&#x1ea1;" horiz-adv-x="537" 
d="M259 510c115 0 207 -61 207 -190v-320h-78l-5 71c-54 -48 -120 -81 -185 -81c-89 0 -153 64 -153 153s68 168 243 139l91 -15v59c0 76 -56 109 -124 109c-59 0 -104 -24 -134 -69l-61 54c38 55 104 90 199 90zM135 147c0 -47 33 -78 83 -78c58 0 114 33 161 76v57l-82 14
c-126 23 -162 -20 -162 -69zM256 -68c32 0 58 -27 58 -59s-26 -58 -58 -58s-59 26 -59 58s27 59 59 59z" />
    <glyph glyph-name="uni1EB8" unicode="&#x1eb8;" horiz-adv-x="542" 
d="M490 669h-324v-253h282v-82h-282v-253h324v-81h-415v750h415v-81zM283 -67c32 0 58 -27 58 -59s-26 -58 -58 -58s-59 26 -59 58s27 59 59 59z" />
    <glyph glyph-name="uni1EB9" unicode="&#x1eb9;" horiz-adv-x="545" 
d="M505 250c0 -9 0 -19 -1 -29h-378c9 -92 62 -154 155 -154c60 0 98 21 138 83l62 -43c-41 -74 -109 -117 -203 -117c-148 0 -238 110 -238 259s91 261 238 261c143 0 227 -108 227 -260zM280 434c-87 0 -139 -58 -152 -144h297c-9 88 -60 144 -145 144zM280 -67
c32 0 58 -27 58 -59s-26 -58 -58 -58s-59 26 -59 58s27 59 59 59z" />
    <glyph glyph-name="uni1EBC" unicode="&#x1ebc;" horiz-adv-x="542" 
d="M174 845h-56c-11 76 32 129 94 129c41 0 71 -21 93 -55c12 -20 25 -29 45 -29c31 0 48 30 40 75h56c11 -74 -30 -129 -94 -129c-38 0 -68 17 -93 54c-13 20 -26 29 -45 29c-31 0 -48 -30 -40 -74zM490 669h-324v-253h282v-82h-282v-253h324v-81h-415v750h415v-81z" />
    <glyph glyph-name="uni1EBD" unicode="&#x1ebd;" horiz-adv-x="545" 
d="M171 598h-56c-11 76 32 129 94 129c41 0 71 -21 93 -55c12 -20 25 -29 45 -29c31 0 48 30 40 75h56c11 -74 -30 -129 -94 -129c-38 0 -68 17 -93 54c-13 20 -26 29 -45 29c-31 0 -48 -30 -40 -74zM505 250c0 -9 0 -19 -1 -29h-378c9 -92 62 -154 155 -154
c60 0 98 21 138 83l62 -43c-41 -74 -109 -117 -203 -117c-148 0 -238 110 -238 259s91 261 238 261c143 0 227 -108 227 -260zM280 434c-87 0 -139 -58 -152 -144h297c-9 88 -60 144 -145 144z" />
    <glyph glyph-name="uni1ECA" unicode="&#x1eca;" horiz-adv-x="241" 
d="M75 0v750h91v-750h-91zM121 -184c-32 0 -59 26 -59 58s27 59 59 59s58 -27 58 -59s-26 -58 -58 -58z" />
    <glyph glyph-name="uni1ECB" unicode="&#x1ecb;" horiz-adv-x="273" 
d="M137 593c-32 0 -59 25 -59 57c0 33 27 59 59 59c31 0 58 -26 58 -59c0 -32 -27 -57 -58 -57zM92 0v500h88v-500h-88zM142 -198c-32 0 -59 26 -59 58s27 59 59 59s58 -27 58 -59s-26 -58 -58 -58z" />
    <glyph glyph-name="uni1ECC" unicode="&#x1ecc;" horiz-adv-x="834" 
d="M417 -10c-213 0 -366 172 -366 385s153 385 366 385c212 0 366 -172 366 -385s-154 -385 -366 -385zM417 77c167 0 279 131 279 298s-112 298 -279 298c-166 0 -280 -131 -280 -298s114 -298 280 -298zM417 -184c-32 0 -59 26 -59 58s27 59 59 59s58 -27 58 -59
s-26 -58 -58 -58z" />
    <glyph glyph-name="uni1ECD" unicode="&#x1ecd;" horiz-adv-x="567" 
d="M284 -10c-146 0 -244 116 -244 260c0 145 98 260 244 260c145 0 244 -115 244 -260c0 -144 -99 -260 -244 -260zM284 69c96 0 157 80 157 181s-61 182 -157 182c-98 0 -157 -81 -157 -182s59 -181 157 -181zM284 -184c-32 0 -59 26 -59 58s27 59 59 59s58 -27 58 -59
s-26 -58 -58 -58z" />
    <glyph glyph-name="uni1EE4" unicode="&#x1ee4;" horiz-adv-x="730" 
d="M365 -10c-159 0 -285 113 -285 256v504h91v-489c0 -106 86 -190 194 -190s194 84 194 190v489h92v-504c0 -143 -127 -256 -286 -256zM365 -184c-32 0 -59 26 -59 58s27 59 59 59s58 -27 58 -59s-26 -58 -58 -58z" />
    <glyph glyph-name="Ygrave" unicode="&#x1ef2;" horiz-adv-x="653" 
d="M359 845h-71l-110 155h91zM634 750l-261 -394v-356h-92v354l-262 396h103l205 -317l205 317h102z" />
    <glyph glyph-name="ygrave" unicode="&#x1ef3;" horiz-adv-x="594" 
d="M329 595h-71l-110 155h91zM519 500v-513c0 -137 -80 -243 -241 -243c-73 0 -128 18 -174 48v96c44 -38 103 -65 181 -65c99 0 145 63 145 164v77c-37 -46 -93 -74 -156 -74c-111 0 -197 89 -197 199v311h88v-302c0 -72 58 -129 131 -129c74 0 134 57 134 129v302h89z" />
    <glyph glyph-name="uni1EF4" unicode="&#x1ef4;" horiz-adv-x="653" 
d="M281 0v354l-262 396h103l205 -317l205 317h102l-261 -394v-356h-92zM328 -67c32 0 58 -27 58 -59s-26 -58 -58 -58s-59 26 -59 58s27 59 59 59z" />
    <glyph glyph-name="uni1EF8" unicode="&#x1ef8;" horiz-adv-x="653" 
d="M219 845h-56c-11 76 32 129 94 129c41 0 71 -21 93 -55c12 -20 25 -29 45 -29c31 0 48 30 40 75h56c11 -74 -30 -129 -94 -129c-38 0 -68 17 -93 54c-13 20 -26 29 -45 29c-31 0 -48 -30 -40 -74zM634 750l-261 -394v-356h-92v354l-262 396h103l205 -317l205 317h102z
" />
    <glyph glyph-name="endash" unicode="&#x2013;" horiz-adv-x="681" 
d="M90 229v62h500v-62h-500z" />
    <glyph glyph-name="emdash" unicode="&#x2014;" horiz-adv-x="1018" 
d="M9 229v62h1000v-62h-1000z" />
    <glyph glyph-name="quoteleft" unicode="&#x2018;" horiz-adv-x="248" 
d="M98 462c-115 0 -76 290 51 293v-44c-54 -3 -82 -133 -50 -133s57 -26 57 -58c0 -33 -25 -58 -58 -58z" />
    <glyph glyph-name="quoteright" unicode="&#x2019;" horiz-adv-x="194" 
d="M44 462v43c39 2 64 69 64 107c0 16 -4 26 -13 26c-32 0 -58 26 -58 59s26 58 59 58c46 0 67 -49 67 -105c0 -84 -43 -187 -119 -188z" />
    <glyph glyph-name="quotesinglbase" unicode="&#x201a;" horiz-adv-x="246" 
d="M47 -186v44c43 0 70 62 70 101c0 19 -6 32 -19 32c-32 0 -58 26 -58 58s26 58 59 58c50 0 73 -50 73 -109c0 -83 -46 -184 -125 -184z" />
    <glyph glyph-name="quotedblleft" unicode="&#x201c;" horiz-adv-x="427" 
d="M246 763v-44c-38 -1 -64 -68 -64 -106c0 -16 4 -27 13 -27c32 0 58 -25 58 -58s-26 -58 -58 -58c-47 0 -68 48 -68 105c0 84 44 187 119 188zM399 763v-44c-39 -1 -64 -68 -64 -106c0 -16 4 -27 13 -27c32 0 58 -25 58 -58s-26 -58 -59 -58c-46 0 -67 48 -67 105
c0 84 43 187 119 188z" />
    <glyph glyph-name="quotedblright" unicode="&#x201d;" horiz-adv-x="404" 
d="M46 462v43c39 2 64 69 64 107c0 16 -4 26 -13 26c-32 0 -58 26 -58 59s26 58 59 58c46 0 67 -49 67 -105c0 -84 -43 -187 -119 -188zM199 462v43c38 2 64 69 64 107c0 16 -4 26 -13 26c-32 0 -58 26 -58 59s26 58 58 58c47 0 68 -49 68 -105c0 -84 -44 -187 -119 -188z
" />
    <glyph glyph-name="quotedblbase" unicode="&#x201e;" horiz-adv-x="412" 
d="M47 -186v44c43 0 70 62 70 101c0 19 -6 32 -19 32c-32 0 -58 26 -58 58s26 58 59 58c50 0 73 -50 73 -109c0 -83 -46 -184 -125 -184zM221 -186v44c42 0 69 62 69 101c0 19 -6 32 -18 32c-32 0 -58 26 -58 58s26 58 58 58c50 0 73 -50 73 -109c0 -83 -46 -184 -124 -184z
" />
    <glyph glyph-name="dagger" unicode="&#x2020;" horiz-adv-x="665" 
d="M534 475v-59h-174v-586h-60v586h-170v59h170v195h60v-195h174z" />
    <glyph glyph-name="daggerdbl" unicode="&#x2021;" horiz-adv-x="665" 
d="M534 416h-174v-327h174v-59h-174v-200h-60v200h-170v59h170v327h-170v59h170v195h60v-195h174v-59z" />
    <glyph glyph-name="bullet" unicode="&#x2022;" horiz-adv-x="473" 
d="M237 199c-68 0 -127 55 -127 126c0 67 59 126 127 126c67 0 126 -59 126 -126c0 -71 -59 -126 -126 -126z" />
    <glyph glyph-name="ellipsis" unicode="&#x2026;" horiz-adv-x="707" 
d="M91 -10c-32 0 -58 27 -58 59c0 31 26 58 58 58s59 -27 59 -58c0 -32 -27 -59 -59 -59zM301 -10c-32 0 -59 27 -59 59c0 31 27 58 59 58s58 -27 58 -58c0 -32 -26 -59 -58 -59zM500 -10c-31 0 -58 27 -58 59c0 31 27 58 58 58c32 0 59 -27 59 -58c0 -32 -27 -59 -59 -59z
" />
    <glyph glyph-name="perthousand" unicode="&#x2030;" horiz-adv-x="1073" 
d="M195 441c-78 0 -139 72 -139 159c0 89 61 160 139 160c76 0 138 -71 138 -160c0 -87 -62 -159 -138 -159zM73 0l513 750h92l-512 -750h-93zM195 510c37 0 70 40 70 90c0 52 -33 91 -70 91c-38 0 -70 -39 -70 -91c0 -50 32 -90 70 -90zM558 -10c-77 0 -139 72 -139 160
c0 87 62 159 139 159s138 -72 138 -159c0 -88 -61 -160 -138 -160zM885 -10c-78 0 -139 72 -139 160c0 87 61 159 139 159c76 0 137 -72 137 -159c0 -88 -61 -160 -137 -160zM557 59c38 0 69 40 69 91c0 50 -31 90 -69 90c-37 0 -69 -40 -69 -90c0 -51 32 -91 69 -91z
M884 59c37 0 69 40 69 91c0 50 -32 90 -69 90c-38 0 -69 -40 -69 -90c0 -51 31 -91 69 -91z" />
    <glyph glyph-name="guilsinglleft" unicode="&#x2039;" horiz-adv-x="348" 
d="M203 95l-152 184l152 184h75l-152 -184l152 -184h-75z" />
    <glyph glyph-name="guilsinglright" unicode="&#x203a;" horiz-adv-x="348" 
d="M70 95l152 184l-152 184h75l152 -184l-152 -184h-75z" />
    <glyph glyph-name="fraction" unicode="&#x2044;" horiz-adv-x="593" 
d="M-18 0l523 750h92l-523 -750h-92z" />
    <glyph glyph-name="Euro" unicode="&#x20ac;" horiz-adv-x="658" 
d="M357 59c67 0 132 50 144 117l67 -29c-27 -91 -117 -157 -211 -157c-132 0 -224 95 -224 230v43h-93l30 59h63v100h-93l30 59h63v49c0 136 92 230 224 230c94 0 184 -66 211 -157l-67 -28c-12 67 -77 116 -144 116c-94 0 -155 -63 -155 -161v-49h208l-29 -59h-179v-100
h208l-29 -59h-179v-43c0 -97 61 -161 155 -161z" />
    <glyph glyph-name="uni2113" unicode="&#x2113;" horiz-adv-x="607" 
d="M329 -6c-132 0 -191 93 -200 191v12c-22 -15 -46 -35 -69 -52l-28 51c34 27 66 49 95 74v289c0 198 96 262 187 262c106 0 153 -85 153 -178c0 -136 -101 -262 -253 -395v-29c2 -106 67 -153 134 -153c77 0 138 60 168 113l43 -39c-56 -99 -137 -146 -230 -146zM214 330
c105 104 187 207 187 309c0 68 -23 118 -87 118c-44 0 -100 -44 -100 -186v-241z" />
    <glyph glyph-name="trademark" unicode="&#x2122;" horiz-adv-x="719" 
d="M15 709v41h239v-41h-97v-311h-46v311h-96zM605 750h49v-352h-46v278l-132 -196l-132 195v-277h-47v352h50l129 -192z" />
    <glyph glyph-name="estimated" unicode="&#x212e;" horiz-adv-x="923" 
d="M461 -9c-236 0 -427 172 -427 383c0 214 191 386 427 386c237 0 428 -172 428 -386v-10h-692c-4 0 -6 -1 -6 -4v-210c0 -9 4 -17 9 -24c67 -69 160 -114 262 -114c111 0 209 50 276 128h61c-76 -90 -200 -149 -338 -149zM197 385h531c3 0 4 4 4 7v210c0 9 -3 19 -10 25
c-67 66 -158 110 -260 110c-101 0 -193 -45 -261 -113c-6 -7 -10 -16 -10 -26v-206c0 -3 2 -7 6 -7z" />
    <glyph glyph-name="arrowleft" unicode="&#x2190;" horiz-adv-x="845" 
d="M758 413v-121h-537l30 -127l-243 188l243 188l-30 -128h537z" />
    <glyph glyph-name="arrowup" unicode="&#x2191;" horiz-adv-x="514" 
d="M186 0v537l-128 -30l188 243l188 -243l-127 30v-537h-121z" />
    <glyph glyph-name="arrowright" unicode="&#x2192;" horiz-adv-x="845" 
d="M88 413h537l-30 128l243 -188l-243 -188l30 127h-537v121z" />
    <glyph glyph-name="arrowdown" unicode="&#x2193;" horiz-adv-x="491" 
d="M186 750h121v-537l127 30l-188 -243l-188 243l128 -30v537z" />
    <glyph glyph-name="arrowboth" unicode="&#x2194;" horiz-adv-x="861" 
d="M179 144l-242 189l244 188l-31 -127l561 -1l-30 127l243 -188l-242 -188l30 128l-562 1z" />
    <glyph glyph-name="arrowupdn" unicode="&#x2195;" horiz-adv-x="491" 
d="M246 -71l-188 242l128 -30v390l-128 -30l188 242l188 -243l-127 30v-388l127 30z" />
    <glyph glyph-name="uni2196" unicode="&#x2196;" horiz-adv-x="540" 
d="M603 152l-86 -85l-380 379l-68 -111l-39 305l305 -39l-112 -69z" />
    <glyph glyph-name="uni2197" unicode="&#x2197;" horiz-adv-x="540" 
d="M-63 152l380 380l-112 69l305 39l-39 -305l-68 111l-380 -379z" />
    <glyph glyph-name="uni2198" unicode="&#x2198;" horiz-adv-x="541" 
d="M-62 598l86 85l380 -379l68 111l39 -305l-305 39l112 69z" />
    <glyph glyph-name="uni2199" unicode="&#x2199;" horiz-adv-x="541" 
d="M603 598l-380 -380l112 -69l-305 -39l39 305l68 -111l380 379z" />
    <glyph glyph-name="partialdiff" unicode="&#x2202;" horiz-adv-x="536" 
d="M171 706c177 27 317 -143 315 -378c-1 -181 -106 -322 -241 -322c-158 0 -231 129 -169 296c57 153 191 214 315 160c-34 130 -119 207 -220 180v64zM407 328c0 21 -1 42 -3 62c-104 66 -205 24 -255 -109c-44 -117 0 -215 96 -215c88 0 161 117 162 262z" />
    <glyph glyph-name="emptyset" unicode="&#x2205;" horiz-adv-x="819" 
d="M634 488c46 -52 74 -121 74 -197c0 -165 -134 -299 -299 -299c-75 0 -144 28 -197 74l-43 -43l-27 28l43 43c-47 52 -75 121 -75 197c0 165 134 299 299 299c76 0 145 -28 197 -74l44 43l27 -28zM182 291c0 -56 20 -107 53 -147l321 321c-39 33 -91 53 -147 53
c-126 0 -227 -100 -227 -227zM409 64c127 0 228 101 228 227c0 56 -20 107 -54 147l-320 -321c39 -33 90 -53 146 -53z" />
    <glyph glyph-name="product" unicode="&#x220f;" horiz-adv-x="744" 
d="M693 703v-64h-176v-759h-63v759h-163v-759h-65v759h-176v64h643z" />
    <glyph glyph-name="summation" unicode="&#x2211;" horiz-adv-x="754" 
d="M90 -118v50l366 360l-366 360v51h574v-69h-458l343 -342l-343 -342h458v-69z" />
    <glyph glyph-name="minus" unicode="&#x2212;" horiz-adv-x="721" 
d="M60 263v60h600v-60h-600z" />
    <glyph glyph-name="radical" unicode="&#x221a;" horiz-adv-x="731" 
d="M252 -78l-115 353h-67v59h109l103 -311l354 740l54 -23l-391 -818h-47z" />
    <glyph glyph-name="infinity" unicode="&#x221e;" horiz-adv-x="766" 
d="M200 145c-78 0 -137 62 -140 146c3 85 62 147 140 147c57 0 122 -37 183 -102c61 65 126 102 184 102c79 0 135 -59 138 -147c-3 -87 -59 -146 -138 -146c-58 0 -123 36 -184 102c-61 -65 -126 -102 -183 -102zM200 204c41 0 93 31 144 87c-51 56 -103 88 -144 88
c-43 0 -79 -39 -81 -88c2 -49 38 -87 81 -87zM566 204c44 0 79 36 80 87c-1 51 -36 88 -80 88c-42 0 -93 -32 -144 -88c51 -56 102 -87 144 -87z" />
    <glyph glyph-name="integral" unicode="&#x222b;" horiz-adv-x="456" 
d="M172 -189c-49 0 -88 39 -79 98h47c0 -35 11 -49 32 -49c17 0 31 13 31 34v764c0 50 38 83 82 83c48 0 87 -39 79 -98h-48c0 35 -11 49 -32 49c-16 0 -31 -13 -31 -34v-764c0 -50 -37 -83 -81 -83z" />
    <glyph glyph-name="approxequal" unicode="&#x2248;" horiz-adv-x="579" 
d="M397 319c-64 0 -99 43 -128 76c-26 28 -48 49 -83 49c-54 0 -90 -49 -87 -112h-49c-6 96 54 162 137 162c55 0 87 -30 123 -74c23 -27 45 -51 83 -51c52 0 91 45 87 111h49c8 -92 -52 -161 -132 -161zM397 125c-64 0 -99 42 -128 75c-26 28 -48 49 -83 49
c-54 0 -90 -49 -87 -112h-49c-6 97 54 162 137 162c55 0 87 -30 123 -73c23 -28 45 -52 83 -52c52 0 91 45 87 112h49c8 -93 -52 -161 -132 -161z" />
    <glyph glyph-name="notequal" unicode="&#x2260;" horiz-adv-x="721" 
d="M660 331h-206l-113 -132h319v-59h-370l-116 -135h-56l116 135h-174v59h225l112 132h-337v59h388l98 115h56l-98 -115h156v-59z" />
    <glyph glyph-name="lessequal" unicode="&#x2264;" horiz-adv-x="793" 
d="M672 693v-75l-478 -223l478 -224v-76l-552 260v80zM120 0v55h552v-55h-552z" />
    <glyph glyph-name="greaterequal" unicode="&#x2265;" horiz-adv-x="793" 
d="M120 693l552 -258v-80l-552 -260v76l479 224l-479 223v75zM120 0v55h552v-55h-552z" />
    <glyph glyph-name="lozenge" unicode="&#x25ca;" horiz-adv-x="785" 
d="M392 52l-302 301l302 302l301 -301zM393 151l201 203l-201 202l-203 -203z" />
    <glyph glyph-name="uniF8FF" unicode="&#xf8ff;" horiz-adv-x="975" 
d="M488 0c-209 0 -380 171 -380 380c0 210 171 380 380 380c210 0 380 -170 380 -380c0 -209 -170 -380 -380 -380zM488 36c190 0 344 155 344 344c0 190 -154 344 -344 344c-189 0 -344 -154 -344 -344c0 -189 155 -344 344 -344zM687 217c-4 0 -9 2 -12 6l-145 144
c-7 8 -7 19 0 26l145 145c7 7 18 7 25 0s7 -19 0 -26l-132 -132l132 -132c7 -7 6 -17 0 -25c-3 -4 -8 -6 -13 -6zM289 217c-10 0 -18 8 -18 18v290c0 10 8 18 18 18s18 -8 18 -18v-290c0 -10 -8 -18 -18 -18zM488 217c-10 0 -18 8 -18 18v290c0 10 8 18 18 18s18 -8 18 -18
v-290c0 -10 -8 -18 -18 -18zM343 362c-10 0 -18 8 -18 18s8 18 18 18h91c10 0 18 -8 18 -18s-8 -18 -18 -18h-91z" />
    <glyph glyph-name="i.loclTRK" horiz-adv-x="238" 
d="M120 593c-32 0 -59 25 -59 57c0 33 27 59 59 59s58 -26 58 -59c0 -32 -26 -57 -58 -57zM75 0v500h88v-500h-88z" />
    <glyph glyph-name="arrow" horiz-adv-x="491" 
d="M186 0v537l-128 -30l188 243l188 -243l-127 30v-537h-121z" />
    </font>
</defs>
</svg>
